<svg xmlns="http://www.w3.org/2000/svg" xmlns:xlink="http://www.w3.org/1999/xlink" width="600" zoomAndPan="magnify" viewBox="0 0 450 449.999984" height="600" preserveAspectRatio="xMidYMid meet" version="1.0"><defs><filter x="0%" y="0%" width="100%" height="100%" id="b66d340706"><feColorMatrix values="0 0 0 0 1 0 0 0 0 1 0 0 0 0 1 0 0 0 1 0" color-interpolation-filters="sRGB"/></filter><mask id="ecb6d3f18a"><g filter="url(#b66d340706)"><rect x="-45" width="540" fill="#000000" y="-44.999998" height="539.99998" fill-opacity="0.27"/></g></mask><clipPath id="7679f19d82"><path d="M 0 0.941406 L 450 0.941406 L 450 355.402344 L 0 355.402344 Z M 0 0.941406 " clip-rule="nonzero"/></clipPath><clipPath id="4b89176830"><rect x="0" width="450" y="0" height="356"/></clipPath></defs><rect x="-45" width="540" fill="#ffffff" y="-44.999998" height="539.99998" fill-opacity="1"/><rect x="-45" width="540" fill="#ffffff" y="-44.999998" height="539.99998" fill-opacity="1"/><g mask="url(#ecb6d3f18a)"><g transform="matrix(1, 0, 0, 1, 0, 47)"><g clip-path="url(#4b89176830)"><g clip-path="url(#7679f19d82)"><path fill="#57595b" d="M 330.851562 65.136719 C 339.058594 65.136719 339.058594 52.386719 330.851562 52.386719 C 322.664062 52.386719 322.648438 65.136719 330.851562 65.136719 Z M 124.363281 63.164062 C 132.5625 63.164062 132.574219 50.410156 124.363281 50.410156 C 116.171875 50.410156 116.15625 63.164062 124.363281 63.164062 Z M 92.257812 111.625 C 100.449219 111.625 100.460938 98.875 92.257812 98.875 C 84.054688 98.875 84.046875 111.625 92.257812 111.625 Z M 185.125 85.703125 C 193.3125 85.703125 193.347656 72.957031 185.125 72.957031 C 176.9375 72.957031 176.921875 85.703125 185.125 85.703125 Z M 206.863281 32.996094 C 215.066406 32.996094 215.066406 20.242188 206.863281 20.242188 C 198.671875 20.242188 198.65625 32.996094 206.863281 32.996094 Z M 316.53125 114.101562 C 324.734375 114.101562 324.753906 101.347656 316.53125 101.347656 C 308.34375 101.347656 308.328125 114.101562 316.53125 114.101562 Z M 275.539062 46.84375 C 283.726562 46.84375 283.742188 34.089844 275.539062 34.089844 C 267.332031 34.089844 267.316406 46.84375 275.539062 46.84375 Z M 225.003906 13.675781 C 122.804688 13.675781 39.660156 64.949219 39.660156 127.972656 L 39.660156 133.453125 C 39.660156 139.8125 44.828125 144.984375 51.179688 144.984375 L 398.839844 144.984375 C 405.1875 144.984375 410.355469 139.8125 410.355469 133.453125 L 410.355469 127.972656 C 410.355469 64.949219 327.207031 13.675781 225.011719 13.675781 Z M 398.835938 157.71875 L 51.175781 157.71875 C 37.8125 157.71875 26.9375 146.832031 26.9375 133.453125 L 26.9375 127.972656 C 26.9375 93.476562 47.9375 61.257812 86.0625 37.261719 C 123.273438 13.839844 172.609375 0.941406 225.003906 0.941406 C 277.398438 0.941406 326.738281 13.835938 363.949219 37.261719 C 402.078125 61.257812 423.066406 93.476562 423.066406 127.972656 L 423.066406 133.453125 C 423.066406 146.832031 412.191406 157.71875 398.835938 157.71875 Z M 432.210938 179.699219 C 433.054688 179.046875 432.769531 179.300781 431.828125 179.921875 C 430.492188 180.796875 429.140625 181.640625 427.742188 182.421875 C 423.578125 184.699219 419.03125 186.386719 414.324219 187.148438 C 407.328125 188.296875 400.203125 187.246094 393.828125 184.140625 C 386.605469 180.640625 380.996094 174.828125 373.535156 171.644531 C 358.015625 164.992188 339.238281 168.238281 326.597656 179.492188 C 326.453125 179.605469 326.246094 179.746094 325.976562 179.921875 C 324.640625 180.796875 323.289062 181.640625 321.890625 182.421875 C 317.722656 184.699219 313.160156 186.386719 308.46875 187.148438 C 301.472656 188.296875 294.347656 187.246094 287.972656 184.140625 C 280.753906 180.640625 275.125 174.828125 267.683594 171.644531 C 252.164062 164.992188 233.382812 168.238281 220.742188 179.492188 C 220.601562 179.605469 220.394531 179.746094 220.125 179.921875 C 218.789062 180.796875 217.421875 181.640625 216.019531 182.421875 C 211.855469 184.699219 207.308594 186.386719 202.617188 187.148438 C 195.621094 188.296875 188.480469 187.246094 182.105469 184.140625 C 174.882812 180.640625 169.273438 174.828125 161.828125 171.644531 C 146.300781 164.992188 127.515625 168.238281 114.890625 179.492188 C 114.742188 179.605469 114.535156 179.746094 114.261719 179.921875 C 112.921875 180.796875 111.574219 181.640625 110.164062 182.421875 C 106 184.699219 101.441406 186.386719 96.753906 187.148438 C 89.757812 188.296875 82.621094 187.246094 76.25 184.140625 C 69.039062 180.640625 63.417969 174.828125 55.96875 171.644531 C 40.339844 164.960938 21.410156 168.269531 8.78125 179.699219 C 2.6875 185.222656 11.71875 194.199219 17.789062 188.710938 C 21.652344 185.222656 28.140625 182.277344 33.761719 181.277344 C 50.160156 178.316406 59.671875 191.035156 73.390625 196.78125 C 90.027344 203.734375 109.714844 199.820312 123.648438 188.710938 C 127.511719 185.222656 134.003906 182.277344 139.617188 181.277344 C 156.019531 178.316406 165.535156 191.035156 179.257812 196.78125 C 195.890625 203.734375 215.574219 199.820312 229.503906 188.710938 C 233.367188 185.222656 239.855469 182.277344 245.484375 181.277344 C 261.878906 178.316406 271.386719 191.035156 285.109375 196.78125 C 301.742188 203.734375 321.429688 199.820312 335.375 188.710938 C 339.238281 185.222656 345.710938 182.277344 351.339844 181.277344 C 367.75 178.316406 377.257812 191.035156 390.980469 196.78125 C 407.597656 203.734375 427.296875 199.820312 441.226562 188.710938 C 447.636719 183.597656 438.570312 174.636719 432.210938 179.699219 Z M 21.726562 223.425781 C 16.761719 223.425781 12.726562 227.46875 12.726562 232.4375 L 12.726562 240.730469 C 12.726562 245.695312 16.761719 249.738281 21.726562 249.738281 L 428.285156 249.738281 C 433.246094 249.738281 437.285156 245.695312 437.285156 240.730469 L 437.285156 232.4375 C 437.285156 227.46875 433.246094 223.425781 428.285156 223.425781 Z M 428.285156 262.472656 L 21.726562 262.472656 C 9.75 262.472656 0.00390625 252.730469 0.00390625 240.730469 L 0.00390625 232.4375 C 0.00390625 220.449219 9.75 210.691406 21.726562 210.691406 L 428.285156 210.691406 C 440.257812 210.691406 450.003906 220.449219 450.003906 232.4375 L 450.003906 240.730469 C 450.003906 252.730469 440.257812 262.472656 428.285156 262.472656 Z M 51.175781 287.765625 C 44.820312 287.765625 39.652344 292.941406 39.652344 299.289062 L 39.652344 307.265625 C 39.652344 326.78125 55.515625 342.667969 75.019531 342.667969 L 374.976562 342.667969 C 394.488281 342.667969 410.339844 326.78125 410.339844 307.265625 L 410.339844 299.289062 C 410.339844 292.941406 405.171875 287.765625 398.828125 287.765625 Z M 374.984375 355.402344 L 75.027344 355.402344 C 48.507812 355.402344 26.9375 333.800781 26.9375 307.265625 L 26.9375 299.289062 C 26.9375 285.917969 37.8125 275.03125 51.179688 275.03125 L 398.839844 275.03125 C 412.199219 275.03125 423.074219 285.917969 423.074219 299.289062 L 423.074219 307.265625 C 423.074219 333.800781 401.511719 355.402344 374.988281 355.402344 " fill-opacity="1" fill-rule="nonzero"/></g></g></g></g></svg>