<svg xmlns="http://www.w3.org/2000/svg" xmlns:xlink="http://www.w3.org/1999/xlink" width="600" zoomAndPan="magnify" viewBox="0 0 450 449.999984" height="600" preserveAspectRatio="xMidYMid meet" version="1.0"><defs><filter x="0%" y="0%" width="100%" height="100%" id="5f05a96f40"><feColorMatrix values="0 0 0 0 1 0 0 0 0 1 0 0 0 0 1 0 0 0 1 0" color-interpolation-filters="sRGB"/></filter><mask id="c811aa936c"><g filter="url(#5f05a96f40)"><rect x="-45" width="540" fill="#000000" y="-44.999998" height="539.99998" fill-opacity="0.25"/></g></mask><clipPath id="7e9c60f939"><path d="M 274 0.960938 L 368 0.960938 L 368 95 L 274 95 Z M 274 0.960938 " clip-rule="nonzero"/></clipPath><clipPath id="1b8ba08985"><path d="M 1 21 L 444.878906 21 L 444.878906 352 L 1 352 Z M 1 21 " clip-rule="nonzero"/></clipPath><clipPath id="0a7a61a5db"><rect x="0" width="445" y="0" height="353"/></clipPath></defs><rect x="-45" width="540" fill="#ffffff" y="-44.999998" height="539.99998" fill-opacity="1"/><rect x="-45" width="540" fill="#ffffff" y="-44.999998" height="539.99998" fill-opacity="1"/><g mask="url(#c811aa936c)"><g transform="matrix(1, 0, 0, 1, 2, 48)"><g clip-path="url(#0a7a61a5db)"><path fill="#57595b" d="M 129.78125 92.902344 C 152.894531 90.832031 171.011719 68.136719 168.710938 42.25 C 166.441406 16.339844 142.890625 -0.496094 117.640625 4.535156 C 92.351562 9.578125 76.511719 32.039062 80.90625 54.972656 C 85.351562 77.898438 106.621094 94.980469 129.78125 92.902344 " fill-opacity="1" fill-rule="nonzero"/><path stroke-linecap="round" transform="matrix(0.14684, 0, 0, -0.14684, -89.255542, 488.620806)" fill="none" stroke-linejoin="round" d="M 1491.668451 2694.893131 C 1649.07284 2708.992223 1772.453194 2863.550192 1756.784581 3039.842043 C 1741.328784 3216.293508 1580.944964 3330.948386 1408.989248 3296.684933 C 1236.767512 3262.341674 1128.896158 3109.379828 1158.823476 2953.199134 C 1189.09662 2797.071644 1333.944837 2680.740835 1491.668451 2694.893131 Z M 1491.668451 2694.893131 " stroke="#231f20" stroke-width="30" stroke-opacity="1" stroke-miterlimit="10"/><path fill="#57595b" d="M 316.070312 92.449219 C 339.230469 94.527344 360.5 77.445312 364.945312 54.519531 C 369.34375 31.585938 353.5 9.125 328.21875 4.085938 C 302.96875 -0.949219 279.417969 15.890625 277.144531 41.796875 C 274.84375 67.683594 292.960938 90.378906 316.070312 92.449219 " fill-opacity="1" fill-rule="nonzero"/><g clip-path="url(#7e9c60f939)"><path stroke-linecap="round" transform="matrix(0.14684, 0, 0, -0.14684, -89.255542, 488.620806)" fill="none" stroke-linejoin="round" d="M 2760.320694 2697.97897 C 2918.044308 2683.826674 3062.892524 2800.157483 3093.165669 2956.284973 C 3123.119588 3112.465667 3015.221633 3265.427513 2843.0531 3299.74417 C 2671.097384 3334.034225 2510.713564 3219.352745 2495.231165 3042.927882 C 2479.562552 2866.636031 2602.942906 2712.078062 2760.320694 2697.97897 Z M 2760.320694 2697.97897 " stroke="#231f20" stroke-width="30" stroke-opacity="1" stroke-miterlimit="10"/></g><path fill="#57595b" d="M 439.183594 63.496094 C 432.917969 54.730469 419.515625 51.792969 409.691406 57.605469 C 384.75 72.425781 361.433594 88.824219 339.894531 106.628906 C 338.972656 107.378906 338.164062 108.222656 337.425781 109.125 C 337.425781 109.117188 337.425781 109.117188 337.425781 109.113281 L 297.640625 106.359375 C 296.980469 105.109375 296.195312 103.914062 295.265625 102.796875 C 277.582031 81.578125 259.496094 59.136719 241.128906 35.386719 C 240.089844 33.449219 238.777344 31.648438 237.183594 30.082031 C 235.289062 28.207031 233.148438 26.835938 230.914062 25.882812 C 223.6875 22.425781 214.949219 23.433594 208.675781 29.625 C 206.457031 31.808594 204.773438 34.417969 203.632812 37.253906 C 185.644531 60.476562 167.921875 82.457031 150.585938 103.25 C 149.664062 104.367188 148.878906 105.5625 148.21875 106.8125 C 135.089844 107.890625 121.964844 108.976562 108.835938 110.054688 C 108.007812 108.976562 107.050781 107.972656 105.960938 107.078125 C 84.417969 89.277344 61.101562 72.871094 36.160156 58.058594 C 26.339844 52.234375 12.9375 55.175781 6.671875 63.941406 C 0.386719 72.71875 3.390625 84.105469 12.890625 90.035156 C 37.164062 105.050781 59.777344 121.621094 80.597656 139.535156 C 81.617188 140.417969 82.707031 141.175781 83.84375 141.800781 C 84.617188 142.878906 85.488281 143.859375 86.429688 144.738281 C 85.964844 167.75 84.785156 190.648438 82.863281 213.414062 C 82.910156 216.011719 83.289062 218.535156 83.929688 220.945312 C 78.738281 249.902344 72.660156 278.378906 65.734375 306.390625 C 63.0625 317.488281 68.753906 330.175781 78.394531 334.972656 C 88.042969 339.765625 98.796875 334.4375 102.457031 322.8125 C 110.550781 296.574219 117.886719 269.832031 124.488281 242.644531 C 128.371094 242.898438 132.253906 243.15625 136.132812 243.414062 C 138.339844 271.570312 138.777344 300.042969 137.367188 328.667969 C 136.804688 341.269531 144.546875 350.703125 155.375 349.59375 C 166.171875 348.492188 176.484375 336.785156 177.679688 323.625 C 180.574219 290.683594 181.140625 257.816406 179.472656 225.292969 C 180.449219 222.625 181.132812 219.769531 181.453125 216.777344 C 180.84375 190.902344 178.886719 165.179688 175.640625 139.707031 C 176.394531 138.691406 177.058594 137.585938 177.648438 136.402344 C 178.355469 135.796875 179.050781 135.140625 179.691406 134.402344 C 193.929688 117.96875 208.421875 100.816406 223.117188 82.898438 C 237.675781 100.65625 252.042969 117.664062 266.160156 133.949219 C 266.808594 134.695312 267.503906 135.34375 268.207031 135.949219 C 268.507812 136.554688 268.820312 137.132812 269.167969 137.6875 C 257.132812 165.007812 238.890625 228.746094 236.246094 241.113281 C 245.839844 244.734375 255.636719 247.625 265.546875 249.804688 C 265.164062 274.140625 266.015625 298.632812 268.175781 323.171875 C 269.371094 336.335938 279.6875 348.039062 290.480469 349.140625 C 301.308594 350.257812 309.046875 340.816406 308.484375 328.21875 C 307.269531 303.566406 307.429688 279.023438 308.90625 254.695312 C 314.042969 254.742188 319.183594 254.605469 324.3125 254.273438 C 330.128906 277.3125 336.5 300.011719 343.402344 322.363281 C 347.058594 333.988281 357.816406 339.320312 367.457031 334.523438 C 377.105469 329.722656 382.796875 317.035156 380.117188 305.9375 C 375.332031 286.535156 370.96875 266.910156 367 247.0625 C 373.128906 245.359375 379.203125 243.378906 385.203125 241.113281 C 382.738281 229.554688 370.296875 176.53125 359.511719 147.925781 C 359.484375 146.710938 359.449219 145.496094 359.421875 144.28125 C 360.363281 143.40625 361.234375 142.433594 362.015625 141.355469 C 363.144531 140.722656 364.234375 139.972656 365.261719 139.089844 C 386.078125 121.167969 408.6875 104.605469 432.96875 89.574219 C 442.464844 83.65625 445.464844 72.269531 439.183594 63.496094 " fill-opacity="1" fill-rule="nonzero"/><g clip-path="url(#1b8ba08985)"><path stroke-linecap="round" transform="matrix(0.14684, 0, 0, -0.14684, -89.255542, 488.620806)" fill="none" stroke-linejoin="round" d="M 3598.73782 2895.153439 C 3556.041513 2954.848462 3464.796447 2974.853211 3397.892266 2935.269346 C 3228.038113 2834.34113 3069.250417 2722.665682 2922.566658 2601.413492 C 2916.288572 2596.305897 2910.781945 2590.559852 2905.754156 2584.414776 C 2905.754156 2584.46798 2905.754156 2584.46798 2905.754156 2584.494582 L 2634.812174 2603.249034 C 2630.316426 2611.761693 2624.969412 2619.901924 2618.638122 2627.510113 C 2498.210596 2772.012503 2375.043058 2924.841338 2249.960172 3086.581863 C 2242.884024 3099.776485 2233.945732 3112.040034 2223.092091 3122.70746 C 2210.190092 3135.476449 2195.612163 3144.813772 2180.395785 3151.304675 C 2131.181974 3174.847498 2071.673166 3167.984167 2028.950257 3125.819902 C 2013.840287 3110.94935 2002.374799 3093.179174 1994.606998 3073.866078 C 1872.104511 2915.716831 1751.410965 2766.02704 1633.351022 2624.424274 C 1627.072936 2616.816085 1621.725922 2608.675855 1617.230174 2600.163195 C 1527.82065 2592.821027 1438.437729 2585.425654 1349.028205 2578.083485 C 1343.388568 2585.425654 1336.871063 2592.262383 1329.449089 2598.354255 C 1182.738728 2719.579843 1023.951031 2831.308495 854.096878 2932.183507 C 787.219299 2971.847178 695.947631 2951.815827 653.277927 2892.120804 C 610.475212 2832.345975 630.932196 2754.80097 695.628406 2714.419043 C 860.933607 2612.160724 1014.932933 2499.314786 1156.721913 2377.317738 C 1163.665051 2371.305673 1171.087025 2366.144873 1178.828225 2361.888544 C 1184.095433 2354.546375 1190.027692 2347.869258 1196.438789 2341.883794 C 1193.273143 2185.171059 1185.239321 2029.229783 1172.151108 1874.192977 C 1172.470332 1856.502607 1175.050732 1839.317676 1179.41347 1822.904205 C 1144.059332 1625.703134 1102.666527 1431.774117 1055.501074 1241.010744 C 1037.305265 1165.434292 1076.064467 1079.030801 1141.718351 1046.363471 C 1207.425439 1013.722743 1280.660911 1050.007953 1305.587041 1129.175684 C 1360.706509 1307.861721 1410.665178 1489.979424 1455.622659 1675.129762 C 1482.065107 1673.400628 1508.507555 1671.644892 1534.9234 1669.889156 C 1549.953564 1478.141507 1552.932995 1284.239092 1543.329651 1089.299196 C 1539.498955 1003.48095 1592.224238 939.236975 1665.965148 946.79196 C 1739.493242 954.293741 1809.72268 1034.020115 1817.862911 1123.642455 C 1837.575037 1347.977628 1841.432336 1571.807361 1830.073256 1793.296113 C 1836.723771 1811.46532 1841.379132 1830.911425 1843.560501 1851.288603 C 1839.410579 2027.500649 1826.082947 2202.675214 1803.976635 2376.147248 C 1809.110833 2383.063783 1813.633183 2390.592166 1817.650094 2398.652591 C 1822.465067 2402.77591 1827.200234 2407.245056 1831.562972 2412.272845 C 1928.527481 2524.187712 2027.221123 2640.997357 2127.298073 2763.021007 C 2226.443951 2642.088042 2324.286328 2526.262673 2420.426173 2415.358684 C 2424.842115 2410.277691 2429.577281 2405.861749 2434.365652 2401.73843 C 2436.414011 2397.61511 2438.542175 2393.678005 2440.909759 2389.900513 C 2358.948812 2203.845705 2234.717192 1769.779891 2216.707597 1685.557769 C 2282.042256 1660.89766 2348.760223 1641.212135 2416.249649 1626.368186 C 2413.642647 1460.637352 2419.441896 1293.842435 2434.152836 1126.728294 C 2442.293066 1037.079352 2512.549106 957.37958 2586.050598 949.877799 C 2659.791509 942.26961 2712.49019 1006.566789 2708.659493 1092.358433 C 2700.386252 1260.244034 2701.476937 1427.384777 2711.532515 1593.062407 C 2746.514224 1592.743182 2781.522535 1593.674254 2816.45104 1595.935429 C 2856.061508 1439.036479 2899.449468 1284.451908 2946.455308 1132.234921 C 2971.354836 1053.06719 3044.616909 1016.755378 3110.270793 1049.422708 C 3175.977882 1082.11664 3214.737083 1168.520131 3196.48807 1244.096583 C 3163.900546 1376.229015 3134.186045 1509.877765 3107.158352 1645.042832 C 3148.896984 1656.64133 3190.263188 1670.128575 3231.123952 1685.557769 C 3214.338052 1764.273265 3129.610491 2125.369628 3056.162203 2320.176513 C 3055.975989 2328.449754 3055.73657 2336.722995 3055.550356 2344.996235 C 3061.961452 2350.955097 3067.893712 2357.57901 3073.214124 2364.921178 C 3080.902119 2369.230712 3088.324094 2374.338308 3095.320436 2380.350373 C 3237.082813 2502.400625 3391.055537 2615.193359 3556.413942 2717.558086 C 3621.08355 2757.860207 3641.513932 2835.405212 3598.73782 2895.153439 Z M 3598.73782 2895.153439 " stroke="#231f20" stroke-width="30" stroke-opacity="1" stroke-miterlimit="10"/></g></g></g></g></svg>