<svg width="210" height="157" viewBox="0 0 210 157" fill="none" xmlns="http://www.w3.org/2000/svg">
<path fill-rule="evenodd" clip-rule="evenodd" d="M71.0417 75.5917H73.7413V73.0888C73.7413 70.0517 75.4287 68.0272 78.8031 68.0272L80.4904 68.3645V71.4017L78.6344 71.0641C77.622 71.0641 77.1159 71.739 77.1159 72.7514V75.5917H80.4904V78.6287H77.1159V91.4516H73.7413V78.6287H71.0417V75.5917Z" fill="black"/>
<path fill-rule="evenodd" clip-rule="evenodd" d="M89.2433 88.7521C92.4491 88.7521 94.1362 86.39 94.1362 83.5218C94.1362 80.6533 92.4491 78.2912 89.2433 78.2912C86.0376 78.2912 84.3503 80.6533 84.3503 83.5218C84.3503 86.39 86.0376 88.7521 89.2433 88.7521ZM89.2433 75.2542C93.63 75.2542 97.5107 78.6287 97.5107 83.5218C97.5107 88.4148 93.63 91.7891 89.2433 91.7891C84.8566 91.7891 80.9758 88.4148 80.9758 83.5218C80.9758 78.6287 84.8566 75.2542 89.2433 75.2542Z" fill="black"/>
<path fill-rule="evenodd" clip-rule="evenodd" d="M107.269 88.7521C110.475 88.7521 112.162 86.39 112.162 83.5218C112.162 80.6533 110.475 78.2912 107.269 78.2912C104.063 78.2912 102.376 80.6533 102.376 83.5218C102.376 86.39 104.063 88.7521 107.269 88.7521ZM107.269 75.2542C111.656 75.2542 115.536 78.6287 115.536 83.5218C115.536 88.4148 111.656 91.7891 107.269 91.7891C102.882 91.7891 99.0015 88.4148 99.0015 83.5218C99.0015 78.6287 102.882 75.2542 107.269 75.2542Z" fill="black"/>
<path fill-rule="evenodd" clip-rule="evenodd" d="M125.294 78.2912C122.089 78.2912 120.368 80.6533 120.368 83.5218C120.368 86.39 122.089 88.7521 125.294 88.7521C128.163 88.7521 130.187 86.39 130.187 83.5218C130.187 80.6533 128.163 78.2912 125.294 78.2912ZM133.224 91.4516H130.187L129.85 90.1019L129.681 89.9333L129.512 90.1019C128.5 91.1143 126.813 91.7891 125.126 91.7891C120.739 91.7891 117.027 88.4148 117.027 83.5218C117.027 78.6287 120.739 75.2542 125.126 75.2542C126.779 75.2542 128.5 75.9291 129.512 76.9414L129.681 77.1102L129.85 76.9414V68.0272H133.224V91.4516Z" fill="black"/>
<path fill-rule="evenodd" clip-rule="evenodd" d="M143.658 88.757C146.864 88.757 148.552 86.3948 148.552 83.5266C148.552 80.6584 146.864 78.2962 143.658 78.2962C140.453 78.2962 138.765 80.6584 138.765 83.5266C138.765 86.3948 140.453 88.757 143.658 88.757ZM143.658 75.2592C148.045 75.2592 151.926 78.6336 151.926 83.5266C151.926 88.4196 148.045 91.7939 143.658 91.7939C139.272 91.7939 135.391 88.4196 135.391 83.5266C135.391 78.6336 139.272 75.2592 143.658 75.2592Z" fill="black"/>
<path fill-rule="evenodd" clip-rule="evenodd" d="M154.093 75.5969H157.127L157.464 77.2842L157.632 77.4528L157.8 77.2842C158.812 75.9342 160.16 75.2594 161.508 75.2594C162.182 75.2594 162.519 75.2594 163.193 75.5969V78.6339H161.171C159.182 78.6339 157.531 80.2536 157.464 82.2108V91.4568H154.093V75.5969Z" fill="black"/>
<path fill-rule="evenodd" clip-rule="evenodd" d="M170.233 88.7868C171.345 88.7868 172.329 88.4375 173.155 87.7387C174.013 87.0081 174.426 86.0233 174.426 84.7211V84.3716H171.535C169.502 84.3716 168.232 85.3244 168.232 86.8491C168.232 87.9928 168.93 88.7868 170.233 88.7868ZM171.662 81.608H174.426V80.9092C174.426 79.0033 173.123 78.1139 171.313 78.1139C169.852 78.1139 168.867 78.8127 168.327 80.2422L165.309 79.6068C165.976 76.9068 168.295 75.1916 171.345 75.1916C175.601 75.1916 177.729 77.2881 177.729 81.5128V91.4551H174.934L174.616 89.3586C173.505 90.9151 171.853 91.7092 169.661 91.7092C166.834 91.7092 164.738 90.0257 164.738 86.8491C164.738 83.5773 167.501 81.608 171.662 81.608Z" fill="black"/>
<g clip-path="url(#clip0_1531_48)">
<path fill-rule="evenodd" clip-rule="evenodd" d="M50.2849 90.5235C51.4431 90.1579 59.5671 86.8843 61.2272 86.2542C61.3933 86.1911 61.4403 85.9798 61.3164 85.8521C61.1334 85.6632 60.7981 85.4511 60.2118 85.4418C59.3961 85.4288 52.365 87.6571 52.365 87.6571C52.365 87.6571 49.0493 88.2163 48.6429 88.1485C48.2364 88.0808 48.1168 87.8098 48.1168 87.5387C48.1168 87.2678 48.3679 86.9489 48.9777 86.881C49.5875 86.8133 53.1411 86.6062 53.7486 86.2353C54.3623 85.8608 54.2674 85.2189 53.9159 85.0875C53.4268 84.9047 43.306 84.8643 38.2682 84.9599C37.5991 84.9726 35.9754 84.9376 33.8042 84.9441C34.1962 87.4344 34.8994 89.5591 36.4187 91.4327C37.8537 90.6994 39.436 90.1998 41.361 90.2848C42.7298 90.3453 48.9978 90.9301 50.2849 90.5235Z" fill="black"/>
<path fill-rule="evenodd" clip-rule="evenodd" d="M41.7826 71.2985C40.9074 72.4085 38.8078 75.4973 38.6481 79.76C38.6328 80.1696 38.3394 80.4879 37.9918 80.4761L36.6875 80.4757C36.2678 80.4615 35.9655 79.942 36.0791 79.4655C36.4938 77.728 37.8051 73.9389 41.6889 71.1703C41.7615 71.1186 41.8404 71.2253 41.7826 71.2985ZM62.622 81.6513H61.3451C61.0763 74.4812 55.328 68.715 48.1638 68.4235V67.0932C48.1638 66.7791 47.9092 66.5247 47.5953 66.5247C47.2812 66.5247 47.0267 66.7791 47.0267 67.0932V68.4235C39.8626 68.715 34.1143 74.4812 33.8455 81.6513H32.5686C32.2546 81.6513 32 81.9057 32 82.2198C32 82.5338 32.2546 82.7883 32.5686 82.7883H62.622C62.9359 82.7883 63.1905 82.5338 63.1905 82.2198C63.1905 81.9057 62.9359 81.6513 62.622 81.6513Z" fill="black"/>
</g>
<defs>
<clipPath id="clip0_1531_48">
<rect width="31.2857" height="34.7619" fill="white" transform="translate(32 61.619)"/>
</clipPath>
</defs>
</svg>
