<svg xmlns="http://www.w3.org/2000/svg" xmlns:xlink="http://www.w3.org/1999/xlink" width="600" zoomAndPan="magnify" viewBox="0 0 450 449.999984" height="600" preserveAspectRatio="xMidYMid meet" version="1.0"><defs><filter x="0%" y="0%" width="100%" height="100%" id="24ed470707"><feColorMatrix values="0 0 0 0 1 0 0 0 0 1 0 0 0 0 1 0 0 0 1 0" color-interpolation-filters="sRGB"/></filter><mask id="974917881b"><g filter="url(#24ed470707)"><rect x="-45" width="540" fill="#000000" y="-44.999998" height="539.99998" fill-opacity="0.26"/></g></mask><clipPath id="be5fce1d4c"><rect x="0" width="339" y="0" height="450"/></clipPath></defs><rect x="-45" width="540" fill="#000000" y="-44.999998" height="539.99998" fill-opacity="1"/><rect x="-45" width="540" fill="#000000" y="-44.999998" height="539.99998" fill-opacity="1"/><g mask="url(#974917881b)"><g transform="matrix(1, 0, 0, 1, 55, 0)"><g clip-path="url(#be5fce1d4c)"><path fill="#57595b" d="M 44.730469 204.667969 C 44.496094 203.101562 44.203125 201.136719 43.867188 198.691406 C 43.425781 195.367188 42.648438 191.21875 42.121094 186.269531 C 41.59375 181.289062 41.023438 175.515625 40.351562 168.910156 C 40.011719 165.644531 39.660156 162.171875 39.28125 158.464844 C 38.886719 154.773438 38.769531 150.863281 38.445312 146.792969 C 38.007812 138.617188 37.230469 129.667969 36.847656 119.898438 C 36.703125 114.050781 36.527344 108.867188 33.949219 103.828125 C 33.523438 102.976562 32.792969 101.820312 31.78125 100.339844 C 29.773438 97.484375 26.507812 93.308594 21.292969 90.351562 C 20.632812 90.027344 19.960938 89.664062 19.269531 89.371094 C 18.539062 89.136719 17.820312 88.8125 17.058594 88.578125 C 16.28125 88.445312 15.507812 88.152344 14.6875 88.066406 C 14.054688 88.007812 13.410156 87.917969 12.753906 87.832031 C 12.488281 87.832031 12.167969 87.773438 11.84375 87.800781 C 11.566406 87.859375 11.066406 87.742188 11.183594 88.183594 L 11.125 89.136719 L 11.097656 89.371094 L 11.097656 90.175781 C 11.097656 90.730469 11.066406 91.304688 11.125 91.859375 C 11.417969 100.984375 13 111.035156 15.507812 121.433594 C 17.96875 131.835938 20.96875 141.707031 23.636719 150.804688 C 26.300781 159.871094 28.574219 168.25 30.214844 175.371094 C 31.003906 178.972656 31.722656 182.210938 32.160156 185.140625 C 32.410156 186.589844 32.675781 187.953125 32.878906 189.199219 C 33.054688 190.445312 33.203125 191.601562 33.320312 192.640625 C 33.523438 194.207031 33.699219 195.511719 33.800781 196.523438 C 33.976562 196.640625 34.152344 196.757812 34.328125 196.875 C 37.464844 199.070312 40.9375 201.707031 44.730469 204.667969 Z M 76.105469 225.660156 C 76.136719 225.6875 76.164062 225.6875 76.195312 225.730469 C 76.078125 225.234375 75.960938 224.589844 75.785156 223.753906 C 75.402344 221.835938 74.683594 218.921875 73.703125 215.15625 C 72.707031 211.273438 71.316406 206.570312 70.21875 200.667969 C 69.984375 199.1875 69.648438 197.710938 69.472656 196.082031 C 69.324219 194.441406 69.148438 192.757812 69.003906 191.042969 C 68.769531 187.691406 68.738281 184.4375 68.605469 180.878906 C 68.136719 166.714844 67.433594 149.851562 67.40625 131.089844 C 67.433594 121.667969 67.609375 111.824219 68.253906 101.585938 C 68.710938 96.488281 68.855469 91.304688 69.648438 86.03125 C 69.851562 84.300781 70.070312 82.527344 70.277344 80.742188 C 70.597656 80.066406 69.824219 80.15625 69.382812 80.007812 L 68.636719 79.863281 C 68.371094 79.804688 68.226562 79.773438 67.464844 79.714844 C 64.945312 79.585938 62.453125 79.117188 59.933594 79.261719 L 56.199219 79.292969 C 54.925781 79.292969 53.828125 79.585938 52.640625 79.65625 C 50.382812 79.832031 47.835938 80.476562 45.976562 81.195312 C 44.699219 81.753906 44.347656 82.175781 44.320312 83.746094 C 44.289062 85.765625 44.464844 88.519531 44.496094 91.023438 C 44.582031 102.730469 45.257812 114.433594 46.296875 126.109375 C 46.664062 130.472656 47.042969 134.734375 47.425781 138.851562 C 48.203125 147.070312 48.671875 154.773438 49.769531 161.734375 C 51.777344 175.632812 53.035156 186.957031 54.808594 194.648438 C 56.347656 202.351562 57.179688 206.628906 57.179688 206.628906 C 57.738281 209.910156 57.707031 212.429688 57.296875 214.363281 C 58.191406 215.039062 59.1875 215.726562 60.285156 216.460938 C 62.21875 217.761719 64.375 219.433594 67.039062 220.855469 C 69.707031 222.332031 72.53125 224.265625 76.105469 225.660156 Z M 92.878906 76.800781 C 93.082031 72.773438 93.257812 67.851562 93.023438 62.253906 C 92.878906 59.472656 92.671875 56.511719 92.175781 53.539062 C 91.910156 52.089844 91.664062 50.492188 91.195312 49.160156 L 90.871094 48.121094 L 90.476562 47.226562 C 90.269531 46.550781 89.859375 46.171875 89.773438 45.953125 C 89.890625 45.996094 89.714844 45.71875 89.289062 45.484375 C 89.171875 45.425781 89.027344 45.335938 88.851562 45.277344 C 88.558594 45.191406 88.234375 45.101562 87.898438 45.015625 C 87.253906 44.808594 86.359375 44.707031 85.539062 44.558594 C 78.832031 43.738281 71.523438 44.207031 66.101562 45.660156 C 64.519531 46.113281 64.433594 46.257812 64.082031 46.609375 C 63.90625 46.757812 63.875 47.007812 63.847656 47.226562 C 63.816406 47.476562 63.816406 47.535156 63.847656 48.03125 C 63.847656 50.054688 64.402344 52.574219 64.945312 54.785156 C 66.132812 59.238281 67.464844 63.089844 68.285156 65.875 C 69.121094 68.65625 69.5 70.414062 69.5 70.414062 C 69.558594 70.824219 69.558594 71.207031 69.53125 71.542969 C 70.335938 71.6875 71.316406 71.921875 72.167969 72.097656 C 73.527344 72.390625 74.890625 72.683594 76.253906 72.949219 L 78.273438 73.375 L 79.285156 73.578125 C 79.546875 73.578125 79.519531 73.753906 79.488281 73.929688 L 79.429688 74.441406 C 79.253906 75.804688 79.109375 77.167969 78.976562 78.5 C 78.507812 82.265625 78.070312 85.984375 77.660156 89.605469 C 77.117188 95.476562 76.765625 101.191406 76.5 106.726562 C 76.136719 117.816406 76.136719 128.21875 76.441406 137.828125 C 77.027344 157.105469 78.246094 173.347656 79.109375 186.445312 C 79.253906 189.859375 79.753906 192.40625 80.046875 195.042969 C 80.675781 197.710938 81.058594 200.113281 81.804688 202.425781 C 82.300781 204.285156 82.816406 206 83.3125 207.640625 C 83.34375 207.273438 83.34375 206.921875 83.34375 206.542969 C 83.429688 201.882812 83.488281 196.464844 83.605469 190.328125 C 83.722656 177.976562 83.898438 162.65625 84.074219 144.433594 C 84.105469 139.863281 84.132812 135.132812 84.148438 130.210938 C 84.175781 127.75 84.175781 125.257812 84.175781 122.710938 C 84.175781 120.367188 84.046875 117.847656 83.871094 115.238281 C 83.695312 112.574219 83.460938 109.878906 83.460938 106.917969 C 83.488281 103.972656 83.460938 100.867188 84.644531 97.132812 C 85.320312 95.300781 86.332031 93.164062 88.324219 91.566406 C 88.820312 91.15625 89.332031 90.789062 89.859375 90.4375 C 90.386719 90.175781 90.960938 89.941406 91.515625 89.722656 C 91.605469 89.675781 91.691406 89.664062 91.78125 89.632812 C 91.78125 89.574219 91.75 89.515625 91.75 89.429688 C 91.75 89.429688 92.410156 84.871094 92.878906 76.800781 Z M 115.554688 117.464844 C 115.582031 113.113281 114.894531 108.953125 112.742188 105.730469 C 110.660156 102.464844 106.984375 100.179688 102.632812 98.699219 C 100.523438 97.878906 98.3125 97.367188 96.527344 97.25 C 94.695312 97.28125 93.859375 97.601562 93.257812 98.523438 C 92.554688 99.507812 92.085938 101.46875 91.96875 103.59375 C 91.867188 105.730469 91.882812 107.957031 92.058594 110.289062 C 92.351562 114.859375 92.847656 119.722656 92.847656 124.480469 C 92.90625 129.050781 92.9375 133.550781 92.996094 137.914062 C 93.273438 155.417969 93.566406 171.238281 93.800781 184.527344 C 93.949219 191.160156 94.09375 197.195312 94.210938 202.484375 C 94.300781 205.121094 94.359375 207.582031 94.417969 209.851562 C 94.445312 210.980469 94.460938 212.078125 94.488281 213.089844 C 94.519531 214.128906 94.605469 214.890625 94.664062 215.726562 C 95.015625 219.066406 95.515625 221.835938 95.835938 223.84375 C 96.117188 225.863281 96.292969 226.917969 96.292969 226.917969 C 96.527344 228.941406 96.46875 230.886719 96.261719 232.410156 C 96.144531 232.9375 96.027344 233.335938 95.882812 233.804688 C 98.210938 234.652344 100.582031 235.515625 103.074219 236.382812 C 105.035156 237.085938 107.101562 237.742188 109.183594 238.417969 C 108.917969 237.304688 108.757812 236.117188 108.726562 234.726562 C 108.726562 234.726562 108.582031 230.242188 108.800781 222.859375 C 108.917969 215.347656 109.09375 204.550781 109.328125 191.191406 C 109.445312 184.527344 110.132812 177.203125 110.542969 169.351562 C 111.070312 161.5 111.351562 153.207031 112.140625 144.285156 C 113.121094 135.277344 115.40625 126.269531 115.554688 117.464844 Z M 131.167969 234.449219 C 131.492188 229.085938 131.695312 221.03125 131.550781 210.25 C 131.460938 199.511719 130.757812 186.0625 130.640625 169.878906 C 130.597656 163.183594 130.511719 155.992188 130.453125 148.433594 C 129.691406 148.199219 128.914062 148.023438 128.035156 147.976562 C 125.71875 147.917969 123.550781 148.578125 121.867188 149.195312 C 121.441406 149.371094 121.03125 149.53125 120.679688 149.675781 C 120.652344 150.292969 120.621094 150.921875 120.59375 151.539062 C 120.300781 160.605469 120.023438 168.910156 119.757812 176.511719 C 119.613281 180.308594 119.496094 183.925781 119.40625 187.339844 C 119.347656 190.75 119.496094 194.03125 119.554688 197.109375 C 119.875 209.355469 120.109375 218.65625 120.269531 224.882812 C 120.375 227.988281 120.417969 230.359375 120.5625 231.78125 C 120.679688 233.261719 120.738281 233.980469 120.738281 233.980469 C 120.769531 237.332031 120.710938 239.722656 120.050781 241.507812 C 123.375 242.359375 126.878906 243.132812 130.570312 243.777344 C 130.570312 243.367188 130.570312 242.957031 130.597656 242.488281 C 130.597656 242.488281 130.6875 241.832031 130.757812 240.496094 C 130.847656 239.136719 130.992188 237.144531 131.167969 234.449219 Z M 142.40625 58.050781 C 142.40625 58.050781 142.464844 56.191406 142.464844 52.691406 C 142.464844 49.1875 142.125 43.738281 142.289062 37.046875 C 142.316406 33.867188 142.550781 30.101562 142.066406 27.40625 C 141.804688 25.984375 141.511719 25.210938 140.824219 24.535156 C 140.121094 23.847656 138.640625 23.203125 136.96875 22.644531 C 132.0625 21.371094 123.960938 19.4375 119.113281 22.25 C 117.839844 22.996094 116.800781 24.039062 116.082031 25.515625 C 112.945312 32.035156 115.011719 43.417969 115.171875 50.375 C 115.40625 58.886719 116.050781 66.578125 116.199219 73.140625 C 116.460938 79.714844 116.800781 85.046875 116.59375 88.8125 C 116.566406 92.578125 116.535156 94.671875 116.535156 94.671875 C 116.492188 95.535156 116.285156 96.238281 116.023438 96.839844 C 118.191406 98.789062 119.964844 101.277344 121.324219 103.828125 C 124.269531 110.289062 124.226562 116.71875 123.875 122.242188 C 123.464844 127.835938 122.570312 132.933594 121.898438 137.738281 C 121.839844 138.207031 121.78125 138.648438 121.691406 139.101562 C 123.230469 139.363281 125.355469 139.570312 128.328125 139.65625 C 129.03125 139.65625 129.691406 139.714844 130.363281 139.746094 C 130.277344 131.660156 130.1875 123.148438 130.101562 114.167969 C 129.953125 105.9375 129.835938 98.085938 129.71875 91.097656 C 129.691406 89.339844 129.660156 87.65625 129.632812 86.015625 C 129.601562 84.273438 129.574219 83.113281 129.457031 81.636719 C 129.234375 78.734375 128.914062 75.835938 128.941406 73.082031 C 129 70.28125 129.207031 67.644531 130.453125 65.007812 C 131.785156 62.226562 133.746094 60.71875 135.082031 60.058594 C 136.472656 59.382812 137.191406 59.207031 137 59.207031 C 136.882812 59.265625 136.179688 59.382812 135.050781 59.882812 L 135.34375 59.707031 L 137.027344 59.089844 C 138.128906 58.738281 138.902344 58.667969 139.710938 58.550781 C 140.675781 58.433594 141.570312 58.375 142.40625 58.34375 C 142.40625 58.226562 142.40625 58.140625 142.40625 58.050781 Z M 163.234375 123.003906 C 163.644531 122.652344 164.054688 122.359375 164.480469 122.109375 C 163.9375 120.6875 163.585938 118.828125 163.558594 116.484375 C 163.558594 116.484375 163.558594 115.867188 163.558594 114.359375 C 163.585938 112.835938 163.585938 110.347656 163.410156 106.582031 C 163.382812 104.691406 163.265625 102.464844 163.089844 99.886719 C 162.941406 97.308594 162.722656 94.351562 162.339844 90.996094 C 162.046875 87.625 161.449219 83.921875 160.832031 79.746094 C 160.421875 77.695312 160.027344 75.527344 159.585938 73.226562 C 159.5 72.65625 159.292969 72.097656 159.175781 71.527344 L 158.957031 70.648438 L 158.871094 70.253906 C 158.8125 70.046875 158.8125 69.871094 158.753906 69.695312 C 158.871094 69.871094 158.957031 69.960938 158.988281 69.8125 C 158.988281 69.753906 158.988281 69.636719 158.957031 69.460938 C 158.871094 69.402344 158.664062 69.390625 158.402344 69.316406 L 158.167969 69.285156 C 157.84375 69.242188 157.507812 69.199219 157.15625 69.167969 C 156.4375 69.097656 155.617188 69.007812 154.78125 68.921875 C 153.15625 68.746094 151.339844 68.539062 149.390625 68.335938 C 147.503906 68.1875 145.453125 68.011719 143.488281 68.011719 C 142.492188 68.011719 141.511719 68.070312 140.648438 68.160156 C 139.695312 68.304688 139.636719 68.277344 139.3125 68.480469 C 139.460938 68.304688 139.050781 68.246094 138.609375 68.832031 C 138.421875 69.097656 137.980469 70.105469 137.835938 71.585938 C 137.660156 73.035156 137.660156 74.96875 137.804688 77.253906 C 137.921875 79.511719 138.214844 82.292969 138.15625 85.28125 C 138.1875 88.09375 138.1875 91.082031 138.214844 94.203125 C 138.273438 100.429688 138.363281 107.210938 138.449219 114.109375 C 138.609375 130.738281 139.078125 147.363281 139.488281 164.019531 C 139.855469 179.371094 140.851562 193.109375 141.570312 204.84375 C 142.316406 216.53125 142.582031 226.1875 142.699219 232.851562 C 142.667969 236.207031 142.667969 238.8125 142.640625 240.585938 C 142.640625 242.359375 142.609375 243.308594 142.609375 243.308594 C 142.550781 244.058594 142.433594 244.761719 142.316406 245.417969 C 144.207031 245.59375 146.109375 245.859375 148.089844 245.917969 C 150.375 246.003906 156.773438 247.457031 158.8125 245.800781 C 161.359375 243.675781 159.585938 237.203125 159.585938 234.300781 C 159.675781 224.882812 159.761719 215.464844 159.851562 206.058594 C 159.878906 194.78125 160.363281 180.761719 160.421875 164.105469 C 160.421875 155.757812 160.863281 146.761719 160.863281 137.109375 C 160.863281 135.894531 160.863281 134.675781 160.863281 133.460938 C 160.863281 132.1875 160.363281 131 160.714844 128.714844 C 160.980469 126.53125 161.625 124.453125 163.234375 123.003906 Z M 188.855469 67.675781 C 189.015625 61.757812 188.621094 55.824219 187.886719 49.9375 C 187.535156 46.933594 187.199219 43.59375 186.789062 40.0625 C 186.585938 38.261719 186.351562 36.414062 186.128906 34.527344 C 185.867188 32.476562 185.75 30.394531 185.632812 28.359375 C 185.425781 24.300781 185.339844 20.171875 184.503906 16.449219 C 184.09375 14.632812 183.464844 12.980469 182.613281 11.9375 C 182.21875 11.382812 181.75 11.058594 181.222656 10.765625 C 180.738281 10.546875 180.242188 10.371094 179.347656 10.339844 C 177.398438 10.222656 174.910156 10.722656 172.742188 11.265625 C 170.484375 11.820312 168.390625 12.449219 166.632812 13.007812 C 165.386719 13.417969 165.242188 13.503906 164.890625 13.652344 C 164.625 13.769531 164.597656 13.8125 164.773438 13.84375 C 164.742188 14.136719 164.832031 14.488281 164.832031 14.75 L 164.890625 15.144531 L 164.917969 15.441406 L 164.976562 16.171875 C 165.125 18.105469 165.269531 19.964844 165.417969 21.753906 C 165.695312 25.328125 165.695312 28.59375 165.871094 31.640625 C 166.164062 37.71875 166.222656 42.671875 166.398438 46.609375 C 166.664062 54.519531 166.941406 58.257812 166.941406 58.257812 C 166.910156 58.726562 166.882812 59.121094 166.808594 59.53125 C 166.839844 59.53125 166.882812 59.53125 166.910156 59.53125 L 167 59.882812 C 167.292969 60.835938 167.527344 61.667969 167.730469 62.402344 C 168.128906 63.824219 168.390625 64.746094 168.480469 65.097656 C 168.714844 65.757812 168.273438 64.011719 167.058594 59.324219 C 167.761719 61.933594 168.449219 64.480469 169.125 66.941406 C 169.328125 67.703125 169.519531 68.480469 169.753906 69.199219 C 169.929688 69.871094 170.105469 70.515625 170.222656 71.175781 C 170.777344 73.726562 171.261719 76.15625 171.761719 78.457031 C 172.507812 82.996094 173.210938 87.054688 173.578125 90.613281 C 174.484375 97.734375 174.851562 102.976562 175.085938 106.773438 C 175.378906 110.566406 175.464844 112.953125 175.496094 114.359375 C 175.554688 115.796875 175.582031 116.277344 175.582031 116.277344 C 175.613281 117.730469 175.464844 118.945312 175.261719 120.042969 C 175.890625 119.984375 176.566406 119.957031 177.253906 119.898438 C 179.949219 119.691406 182.671875 119.5 185.457031 119.296875 C 185.835938 119.265625 186.203125 119.265625 186.585938 119.238281 C 186.378906 118.652344 186.203125 118.023438 186.128906 117.261719 C 186.128906 117.261719 185.984375 115.503906 185.75 112.015625 C 185.542969 108.484375 185.105469 103.210938 185.132812 96.09375 C 185.164062 92.488281 185.25 88.476562 185.953125 83.832031 C 186.761719 78.265625 188.707031 73.402344 188.855469 67.675781 Z M 198.582031 147.449219 C 198.609375 143.335938 198.464844 139.160156 198.40625 134.941406 C 198.199219 132.964844 198.011719 130.972656 197.804688 128.964844 L 197.6875 127.691406 L 197.601562 127.058594 C 197.425781 127.03125 197.191406 127.058594 196.984375 127.058594 C 195.5625 127.117188 194.144531 127.175781 192.722656 127.234375 C 190.4375 127.324219 188.152344 127.425781 185.925781 127.632812 C 181.371094 127.984375 176.917969 128.304688 172.476562 128.640625 C 169.929688 128.933594 169.664062 128.875 168.917969 129.492188 C 168.65625 129.8125 168.597656 130.238281 168.566406 130.648438 C 168.539062 130.972656 168.507812 132.039062 168.507812 133.082031 C 168.65625 141.738281 168.773438 150.144531 168.917969 158.113281 C 169.242188 174.097656 169.519531 188.464844 169.957031 200.640625 C 170.835938 224.941406 171.585938 240.058594 171.585938 240.058594 C 171.644531 245.273438 171.496094 245.625 176.066406 246.488281 C 180.914062 247.398438 186.878906 246.488281 191.800781 246.414062 C 191.492188 245.023438 191.316406 243.367188 191.375 241.332031 C 191.375 241.332031 192.355469 226.214844 193.953125 201.855469 C 194.964844 189.625 196.925781 175.28125 198.023438 159.535156 C 198.257812 155.59375 198.375 151.566406 198.582031 147.449219 Z M 223.5 175.515625 C 224.65625 161.585938 225.460938 147.597656 225.023438 133.578125 C 224.800781 126.269531 224.304688 117.523438 223.820312 107.769531 C 223.644531 102.859375 223.324219 97.734375 223.324219 92.386719 C 223.324219 89.675781 223.207031 87.027344 223.324219 84.15625 C 223.382812 81.402344 223.703125 78.324219 223.527344 76.421875 C 223.382812 75.175781 222.855469 74.734375 220.480469 73.667969 C 219.953125 73.460938 219.324219 73.199219 218.824219 73.050781 C 218.371094 72.976562 218.019531 72.859375 217.492188 72.773438 C 216.335938 72.65625 215.179688 72.507812 213.933594 72.480469 C 211.472656 72.363281 209.011719 72.449219 206.636719 72.65625 C 204.324219 72.832031 201.90625 73.199219 200.425781 73.753906 C 198.230469 74.398438 196.589844 78.132812 195.945312 81.78125 C 195.257812 85.515625 195.199219 89.339844 195.300781 92.8125 C 195.535156 99.828125 196.441406 105.613281 197.042969 109.644531 C 197.71875 113.671875 198.082031 115.925781 198.082031 115.925781 C 198.199219 116.9375 198.140625 117.847656 197.953125 118.652344 C 198.433594 118.621094 198.933594 118.59375 199.386719 118.5625 L 202.875 118.417969 L 204.574219 118.328125 L 205.011719 118.300781 C 205.160156 118.328125 205.070312 118.5625 205.128906 118.679688 L 205.21875 119.53125 C 205.640625 123.414062 206.082031 127.234375 206.492188 130.972656 C 206.609375 132.246094 206.8125 133.550781 206.902344 134.792969 C 206.929688 136.070312 206.960938 137.3125 207.003906 138.53125 C 207.0625 141.019531 207.152344 143.453125 207.210938 145.855469 C 207.238281 148.226562 207.121094 150.554688 207.09375 152.839844 C 207.035156 155.125 206.976562 157.351562 206.929688 159.566406 C 206.785156 161.761719 206.667969 163.902344 206.519531 165.996094 C 205.480469 182.769531 204.175781 196.640625 203.765625 207.730469 C 203.53125 230.183594 203.414062 241.714844 203.414062 241.714844 C 203.355469 243.398438 203.167969 244.847656 202.84375 246.0625 C 207.09375 245.859375 211.472656 245.566406 215.910156 245.15625 C 215.617188 244 215.53125 242.605469 215.734375 240.9375 C 215.734375 240.9375 216.804688 234.929688 218.285156 220.882812 C 219.148438 213.851562 219.925781 204.726562 221.753906 193.5625 C 221.960938 192.171875 222.195312 190.75 222.398438 189.285156 C 222.621094 187.835938 222.679688 186.589844 222.824219 185.171875 C 223.03125 182.066406 223.265625 178.886719 223.5 175.515625 Z M 244.152344 43.855469 C 244.183594 43.769531 244.183594 43.652344 244.210938 43.566406 C 244.152344 42.097656 244.035156 40.648438 243.890625 39.140625 C 243.65625 35.433594 243.832031 32.035156 243.683594 28.914062 C 243.539062 25.839844 243.082031 22.996094 241.910156 21.34375 C 241.339844 20.535156 240.726562 19.878906 239.773438 19.46875 C 238.851562 18.96875 237.78125 18.660156 236.625 18.515625 C 234.074219 18.222656 231.117188 18.339844 228.363281 18.601562 C 225.578125 18.851562 222.855469 19.292969 220.304688 19.90625 C 217.816406 20.507812 215.355469 21.296875 213.699219 22.25 C 212.542969 22.941406 212.628906 23.144531 212.746094 24.15625 C 212.953125 25.984375 213.523438 28.210938 214.109375 30.292969 C 214.402344 31.40625 214.710938 32.476562 215.003906 33.515625 C 215.148438 34.074219 215.296875 34.644531 215.441406 35.316406 C 215.53125 35.710938 215.675781 36.328125 215.648438 36.679688 L 215.675781 37.542969 C 215.765625 39.683594 215.882812 41.691406 215.941406 43.566406 C 216.027344 47.195312 216.085938 50.316406 216.128906 52.867188 C 216.246094 55.296875 216.304688 57.214844 216.363281 58.492188 C 216.628906 64.539062 217.640625 63.414062 222.339844 65.390625 C 223.953125 66.019531 225.609375 66.648438 227.746094 68.21875 C 230.015625 69.8125 231.554688 72.65625 231.804688 75.453125 C 232.039062 77.871094 231.863281 79.511719 231.804688 81.136719 C 231.746094 82.734375 231.65625 84.242188 231.65625 85.722656 C 231.746094 88.769531 231.804688 91.714844 231.863281 94.585938 C 232.15625 100.339844 232.507812 105.703125 232.992188 110.710938 C 233.929688 120.804688 234.734375 129.285156 235.363281 136.128906 C 235.496094 137.429688 235.597656 138.648438 235.6875 139.832031 C 235.746094 138.953125 235.804688 137.828125 235.863281 136.480469 C 236.097656 132.699219 236.183594 127.089844 236.753906 119.691406 C 237.3125 112.308594 237.691406 103.09375 238.820312 92.210938 C 239.363281 86.761719 239.65625 80.859375 240.503906 74.546875 C 241.253906 68.246094 242.027344 61.523438 242.878906 54.402344 C 243.304688 50.960938 243.566406 47.503906 244.152344 43.855469 Z M 262.652344 173.582031 C 263.445312 167.460938 264.132812 160.722656 263.121094 154.890625 C 262.976562 154.203125 262.800781 153.53125 262.59375 152.988281 C 262.433594 152.460938 262.023438 151.890625 262.140625 151.949219 C 262.140625 151.859375 261.996094 151.773438 261.9375 151.714844 L 261.4375 151.273438 L 260.894531 150.953125 C 260.515625 150.601562 259.828125 150.527344 259.300781 150.261719 C 256.722656 149.558594 253.394531 149.675781 250.144531 150.234375 C 234.734375 152.957031 233.636719 159.84375 232.683594 174.007812 C 232.476562 176.996094 232.390625 179.984375 232.273438 182.914062 C 232.183594 184.378906 232.15625 185.769531 232.039062 187.339844 C 231.949219 188.875 231.863281 190.355469 231.65625 191.660156 C 231.085938 196.992188 230.414062 201.941406 230.046875 206.511719 C 229.722656 211.097656 229.429688 215.273438 229.167969 219.007812 C 228.714844 226.566406 228.363281 232.382812 228.128906 236.324219 C 227.835938 240.320312 227.660156 242.417969 227.660156 242.417969 C 227.601562 242.929688 227.496094 243.425781 227.410156 243.910156 C 227.835938 243.851562 228.304688 243.808594 228.773438 243.734375 C 235.171875 242.839844 241.691406 241.597656 248.285156 239.867188 C 248.285156 239.019531 248.355469 238.125 248.546875 237.113281 C 248.546875 237.113281 249.367188 234.125 250.863281 228.792969 C 251.214844 227.488281 251.625 226.070312 252.09375 224.5 C 252.429688 222.976562 252.839844 221.324219 253.25 219.550781 C 253.675781 217.894531 254.054688 215.640625 254.523438 213.441406 C 255.007812 211.273438 255.535156 209.003906 256.046875 206.601562 C 258.230469 197.136719 260.925781 185.945312 262.652344 173.582031 Z M 278.167969 45.015625 C 278.238281 43.140625 278.328125 41.191406 278.136719 39.566406 C 277.960938 37.894531 277.492188 36.765625 277.140625 36.445312 C 276.773438 36.035156 275.148438 35.523438 272.953125 35.492188 C 270.796875 35.433594 268.308594 35.566406 265.730469 35.742188 C 260.574219 36.035156 256.003906 36.796875 254.171875 39.859375 C 253.46875 41.015625 252.957031 42.640625 252.574219 44.503906 C 252.574219 44.558594 252.605469 44.632812 252.605469 44.707031 C 252.78125 46.816406 252.691406 48.835938 252.691406 50.84375 C 252.722656 54.828125 252.339844 58.667969 252.09375 62.34375 C 251.417969 69.667969 250.496094 76.273438 249.878906 82.382812 C 249.601562 85.429688 249.25 88.359375 249.164062 91.097656 C 249.074219 92.460938 248.988281 93.835938 248.929688 95.125 C 248.929688 96.460938 248.898438 97.734375 248.898438 98.992188 C 248.898438 104.003906 249.191406 108.632812 249.457031 112.808594 C 249.996094 121.140625 250.347656 127.660156 250.378906 132.097656 C 250.496094 134.296875 250.320312 136.039062 250.347656 137.167969 C 250.320312 138.296875 250.289062 138.882812 250.289062 138.882812 C 250.203125 140.039062 249.9375 141.019531 249.644531 141.882812 C 252.78125 141.429688 256.03125 141.167969 259.445312 141.765625 C 259.535156 141.488281 259.652344 141.136719 259.796875 140.726562 C 260.074219 139.921875 260.457031 138.925781 260.835938 137.695312 C 261.160156 136.375 261.496094 134.882812 261.90625 133.167969 C 262.566406 129.636719 263.238281 125.171875 263.738281 119.558594 C 264.015625 116.777344 264.367188 113.671875 264.75 110.433594 C 264.984375 108.660156 265.144531 107.386719 265.144531 105.761719 C 265.144531 104.046875 265.144531 102.289062 265.144531 100.457031 C 265.144531 96.722656 265.042969 93.132812 265.378906 89.574219 C 265.496094 87.800781 265.789062 85.984375 266.167969 84.214844 C 266.285156 83.363281 266.710938 82.324219 267.035156 81.429688 C 267.386719 80.476562 267.722656 79.585938 268.335938 78.734375 C 270.328125 75.496094 273.582031 73.34375 276.480469 72.363281 C 276.363281 71.6875 276.335938 70.972656 276.453125 70.164062 C 276.453125 70.164062 276.597656 69.609375 276.746094 68.511719 C 276.847656 67.410156 277.023438 65.757812 277.230469 63.648438 C 277.699219 59.414062 277.902344 53.042969 278.167969 45.015625 Z M 294.984375 84.183594 C 294.867188 84.15625 294.761719 84.183594 294.644531 84.15625 C 294.644531 84.15625 293.519531 83.6875 291.480469 82.996094 C 289.488281 82.351562 286.5 81.429688 283.191406 81.195312 C 281.578125 81.078125 279.867188 81.195312 278.503906 81.722656 C 277.171875 82.234375 275.984375 83.113281 275.238281 84.785156 C 275.0625 85.253906 274.796875 85.605469 274.652344 86.148438 C 274.503906 86.703125 274.359375 87.273438 274.226562 87.859375 C 273.875 88.988281 273.816406 90.410156 273.609375 91.683594 C 273.375 94.4375 273.257812 97.367188 273.289062 100.429688 C 273.289062 103.476562 273.40625 106.597656 273.257812 109.847656 C 273.011719 112.75 272.847656 115.5625 272.777344 118.226562 C 272.570312 123.601562 272.570312 128.539062 272.21875 132.847656 C 271.957031 137.109375 271.53125 140.699219 271.003906 143.21875 C 270.59375 145.738281 270.140625 147.1875 270.140625 147.1875 C 269.992188 147.539062 269.816406 147.859375 269.613281 148.109375 C 269.90625 148.695312 270.257812 149.3125 270.417969 149.824219 C 271.441406 152.402344 271.78125 154.6875 271.984375 156.839844 C 272.6875 165.410156 271.691406 172.644531 270.886719 179.429688 C 269.070312 192.875 266.742188 203.90625 265.246094 212.695312 C 264.867188 214.890625 264.542969 216.914062 264.308594 218.746094 C 263.988281 220.765625 263.679688 222.683594 263.355469 224.441406 C 262.769531 228.074219 262.082031 230.710938 261.613281 233.027344 C 261.410156 234.097656 261.246094 234.988281 261.070312 235.808594 C 261.820312 235.546875 262.566406 235.28125 263.296875 234.988281 C 268.777344 232.851562 274.226562 230.214844 279.484375 227.050781 C 278.941406 225.203125 278.648438 222.800781 278.707031 219.695312 C 278.707031 219.695312 278.765625 218.832031 278.855469 217.117188 C 278.972656 215.375 278.941406 212.796875 279.265625 209.382812 C 279.867188 202.574219 280.453125 192.378906 282.035156 179.046875 C 283.425781 165.671875 285.753906 149.164062 288.523438 129.609375 C 289.945312 119.839844 291.453125 109.304688 293.109375 97.96875 C 293.738281 93.515625 294.382812 88.871094 294.984375 84.183594 Z M 325.699219 193.328125 C 325.699219 193.167969 325.699219 193.023438 325.699219 192.875 C 325.640625 192.320312 325.4375 191.921875 325.203125 191.71875 C 324.71875 191.394531 324.585938 191.484375 324.878906 191.746094 C 324.574219 191.453125 324.046875 191.484375 323.722656 191.71875 C 323.34375 191.980469 323.121094 192.289062 322.886719 192.640625 C 321.175781 195.160156 319.605469 198.296875 318.113281 201.386719 C 316.515625 204.578125 315.210938 207.699219 312.78125 211.273438 C 312.429688 211.757812 312.136719 212.195312 311.636719 212.710938 L 310.773438 213.648438 L 308.988281 215.582031 C 308.019531 216.636719 307.097656 217.644531 306.144531 218.65625 C 302.863281 230.683594 301.371094 242.328125 300.109375 253.007812 C 298.820312 264.625 297.855469 275.230469 296.667969 284.824219 C 295.570312 294.492188 293.796875 302.929688 292.433594 310.339844 C 291.058594 317.753906 289.796875 324.183594 288.84375 329.78125 C 287.835938 335.347656 287.160156 340.0625 286.53125 344.003906 C 286.003906 347.945312 285.578125 351.109375 285.257812 353.570312 C 284.699219 358.519531 284.097656 360.6875 283.484375 360.6875 C 282.914062 360.6875 282.328125 358.519531 281.871094 353.480469 C 281.636719 350.933594 281.695312 347.652344 281.667969 343.5625 C 281.871094 339.507812 282.09375 334.644531 282.738281 328.914062 C 283.324219 323.203125 284.214844 316.625 285.316406 309.15625 C 286.382812 301.65625 287.863281 293.304688 288.699219 283.914062 C 289.578125 274.394531 290.558594 263.816406 291.628906 252.085938 C 292.40625 244.789062 293.3125 236.996094 294.894531 228.765625 C 287.6875 234.332031 279.984375 238.8125 272.21875 242.300781 C 248.578125 252.757812 225.285156 255.351562 204.808594 256.582031 C 194.523438 257.210938 184.828125 257.210938 175.671875 257.269531 C 166.429688 257.210938 158.109375 257.242188 149.625 256.949219 C 132.914062 256.375 118.335938 253.09375 106.222656 249.359375 C 97.976562 246.8125 91.078125 242.359375 83.109375 239.457031 C 72.855469 235.691406 62.980469 233.113281 53.828125 226.742188 C 51.394531 225 48.757812 223.402344 45.59375 221.617188 C 45.59375 221.617188 44.757812 221.148438 43.132812 220.253906 C 42.695312 219.988281 42.179688 219.726562 41.625 219.402344 C 42.753906 229.378906 43.867188 238.726562 44.847656 247.484375 C 46.121094 259.847656 47.25 271.023438 48.261719 281.117188 C 49.328125 291.167969 50.296875 300.117188 51.132812 308.054688 C 51.964844 315.964844 52.492188 322.910156 53.359375 328.855469 C 56.40625 352.660156 56.785156 361.933594 55.613281 362.136719 C 54.425781 362.371094 51.878906 353.539062 47.25 329.722656 C 45.976562 323.816406 45.140625 316.890625 43.953125 308.949219 C 42.839844 301.039062 41.535156 292.058594 40.292969 282.011719 C 38.066406 263.261719 35.371094 240.585938 32.191406 213.53125 C 29.4375 211.449219 26.476562 208.726562 23.753906 205.414062 C 22.023438 203.363281 20.195312 201.179688 18.15625 199.042969 C 17.5 198.296875 17.761719 198.574219 17.617188 198.414062 C 17.558594 198.355469 17.46875 198.265625 17.351562 198.238281 C 17.207031 198.207031 17.175781 198.355469 17.148438 198.425781 L 17.117188 198.601562 C 17.117188 198.632812 17.089844 198.777344 17.117188 199.101562 C 17.175781 200.933594 17.324219 202.835938 17.5 204.84375 C 17.675781 206.835938 17.878906 208.726562 18.203125 210.921875 C 19.386719 219.460938 20.691406 228.734375 22.039062 238.695312 C 23.664062 248.582031 25.085938 259.070312 27.152344 270.335938 C 29.203125 281.628906 31.339844 293.539062 33.613281 306.050781 C 37.640625 331.140625 41.710938 358.636719 46.003906 388.007812 C 48.054688 402.742188 50.75 417.816406 53.242188 433.433594 C 53.5625 435.367188 53.886719 437.3125 54.207031 439.246094 L 54.355469 440.214844 L 54.398438 440.640625 C 54.515625 440.726562 54.691406 440.726562 54.835938 440.757812 L 55.761719 440.816406 L 58.367188 440.902344 C 60.375 440.933594 62.367188 440.960938 64.375 440.992188 C 72.445312 441.050781 80.675781 440.992188 89.027344 440.875 C 105.679688 440.667969 122.777344 440.316406 140.207031 439.890625 C 157.625 439.511719 175.496094 439.394531 193.628906 439.128906 C 202.699219 439.011719 211.851562 438.910156 221.097656 438.765625 C 225.695312 438.707031 230.339844 438.648438 234.96875 438.589844 C 239.773438 438.5 244.488281 438.910156 249.132812 439.128906 C 258.40625 439.628906 267.691406 440.039062 276.539062 438.734375 C 280.90625 438.0625 285.199219 436.875 288.375 434.734375 C 289.972656 433.636719 291.1875 432.390625 292.066406 430.796875 C 292.960938 429.109375 293.707031 427.148438 294.207031 425.023438 C 295.980469 417.582031 296.007812 409.277344 296.066406 401.132812 C 296.183594 392.988281 295.832031 384.609375 297.253906 376.214844 C 299.917969 360.320312 302.496094 344.808594 304.988281 329.957031 C 306.203125 322.515625 307.417969 315.234375 308.605469 308.171875 C 309.792969 301.097656 310.921875 294.214844 311.785156 287.605469 C 313.9375 274.453125 314.714844 261.914062 315.871094 250.515625 C 316.398438 244.789062 316.925781 239.339844 317.378906 234.242188 C 317.996094 229.117188 318.742188 224.339844 319.328125 219.871094 C 319.636719 217.675781 319.929688 215.523438 320.222656 213.472656 C 320.308594 212.945312 320.367188 212.429688 320.457031 211.933594 C 320.574219 211.332031 320.660156 210.628906 320.824219 210.117188 C 321.117188 208.945312 321.4375 207.992188 321.730469 207.039062 C 322.976562 203.394531 324.105469 200.375 324.792969 197.769531 C 325.144531 196.464844 325.40625 195.277344 325.582031 194.238281 C 325.640625 193.972656 325.640625 193.679688 325.671875 193.535156 Z M 328.484375 75.292969 C 328.792969 72.949219 329.054688 70.5625 329.054688 68.335938 C 329.054688 66.136719 328.820312 63.851562 328.191406 63.472656 C 327.339844 62.34375 326.007812 61.699219 323.871094 61.375 C 321.789062 61.097656 319.210938 61.1875 316.546875 61.214844 C 313.792969 61.230469 311.214844 61.15625 308.957031 61.449219 L 308.136719 61.550781 L 307.683594 61.667969 C 307.390625 61.757812 307.183594 61.816406 306.949219 61.992188 C 306.511719 62.285156 306.292969 62.722656 306.144531 63.324219 C 303.390625 84.742188 300.753906 105.191406 298.351562 123.835938 C 297.105469 133.257812 296.097656 142.175781 295.101562 150.554688 C 294.234375 158.921875 293.402344 166.714844 292.785156 173.847656 C 292.273438 180.964844 291.746094 187.425781 291.394531 193.082031 C 291.1875 198.75 291.027344 203.640625 290.851562 207.613281 C 290.648438 211.609375 290.707031 214.714844 290.734375 216.824219 C 290.734375 217.867188 290.765625 218.6875 290.765625 219.214844 C 292.609375 217.703125 294.46875 216.136719 296.242188 214.453125 C 298.734375 212.109375 301.019531 209.414062 303.480469 206.863281 L 304.3125 205.941406 C 304.460938 205.765625 304.636719 205.5625 304.8125 205.269531 C 305.191406 204.726562 305.589844 204.023438 306 203.304688 C 306.804688 201.824219 307.625 200.171875 308.460938 198.484375 C 309.441406 196.523438 310.421875 194.5 311.535156 192.40625 C 311.476562 191.894531 311.449219 191.308594 311.449219 190.664062 C 311.359375 189.226562 311.449219 187.542969 311.742188 185.59375 C 311.742188 185.59375 311.785156 185.375 311.871094 184.878906 C 311.988281 184.378906 312.078125 183.632812 312.222656 182.59375 C 312.457031 180.496094 312.898438 177.582031 313.292969 173.496094 C 313.703125 169.554688 314.390625 164.339844 315.269531 158.65625 C 316.136719 153.015625 317.117188 146.558594 318.1875 139.453125 C 318.742188 135.894531 319.300781 132.15625 319.871094 128.277344 C 320.542969 124.394531 321.203125 120.367188 321.90625 116.191406 C 323.371094 107.796875 324.585938 99.007812 325.933594 89.675781 L 326.183594 87.949219 L 326.332031 86.878906 L 326.535156 85.867188 C 326.769531 84.667969 327.003906 83.511719 327.238281 82.324219 C 327.691406 79.980469 328.132812 77.636719 328.484375 75.292969 Z M 337.433594 64.921875 C 337.800781 68.453125 337.566406 71.441406 337.289062 74.398438 C 336.964844 77.285156 336.527344 80.066406 336.070312 82.761719 C 335.808594 84.097656 335.574219 85.398438 335.339844 86.703125 L 335.046875 88.210938 L 334.828125 90.144531 C 334.503906 92.722656 334.183594 95.242188 333.859375 97.734375 C 332.703125 107.710938 331.371094 116.628906 330.210938 124.773438 C 329.054688 132.933594 328.308594 140.40625 327.488281 147.039062 C 326.742188 153.648438 325.980469 159.566406 325.523438 164.429688 C 324.996094 169.234375 324.734375 173.4375 324.542969 176.792969 C 324.457031 178.035156 324.367188 179.148438 324.28125 180.160156 C 324.515625 180.132812 324.71875 180.101562 324.9375 180.074219 C 325.113281 180.074219 325.289062 180.101562 325.464844 180.101562 C 325.085938 180.101562 324.691406 180.132812 324.28125 180.191406 C 324.28125 180.21875 324.28125 180.277344 324.28125 180.335938 C 325.054688 180.25 325.933594 180.25 326.917969 180.410156 C 328.570312 180.761719 330.269531 181.625 331.722656 183.164062 C 333.316406 184.554688 334.300781 186.765625 334.855469 189.34375 C 334.914062 190.691406 335.132812 192.085938 334.957031 193.652344 C 334.914062 194.296875 334.828125 194.925781 334.738281 195.601562 C 334.652344 196.082031 334.535156 196.582031 334.445312 197.109375 C 334.007812 199.128906 333.40625 201.136719 332.730469 203.160156 C 332.042969 205.09375 331.3125 207.15625 330.5625 209.324219 C 330.183594 210.335938 329.847656 211.375 329.613281 212.253906 C 329.4375 212.769531 329.4375 213.0625 329.320312 213.53125 C 329.230469 214.101562 329.144531 214.714844 329.054688 215.316406 C 328.335938 220.195312 327.574219 225.46875 326.742188 231.109375 C 325.320312 242.488281 324.25 255.46875 322.742188 269.957031 C 322.183594 277.175781 320.824219 284.734375 319.753906 292.585938 C 318.65625 300.46875 317.144531 308.363281 315.785156 316.65625 C 313.015625 333.191406 310.027344 350.757812 306.949219 369.082031 C 306.554688 371.382812 306.175781 373.667969 305.765625 375.980469 L 305.207031 379.4375 C 305.105469 380.535156 304.929688 381.546875 304.871094 382.675781 C 304.488281 387.113281 304.460938 391.859375 304.429688 396.636719 C 304.402344 401.484375 304.429688 406.375 304.195312 411.414062 C 303.976562 416.484375 303.597656 421.640625 302.292969 427.03125 C 301.472656 430.152344 300.550781 433.199219 298.441406 436.375 C 296.257812 439.511719 293.253906 441.796875 290.265625 443.277344 C 284.214844 446.234375 278.167969 447.097656 272.367188 447.625 C 260.75 448.550781 249.574219 447.421875 239.113281 447.011719 C 236.59375 446.894531 233.929688 447.011719 231.261719 447.039062 C 228.597656 447.070312 225.929688 447.128906 223.292969 447.15625 C 218.019531 447.246094 212.777344 447.332031 207.589844 447.390625 C 197.191406 447.566406 186.964844 447.714844 176.945312 447.890625 C 166.882812 448.035156 157.007812 448.199219 147.3125 448.34375 C 137.542969 448.609375 127.992188 448.871094 118.601562 449.136719 C 99.792969 449.558594 81.746094 450 64.257812 450 C 62.058594 449.96875 59.847656 449.941406 57.679688 449.941406 L 56.023438 449.882812 L 53.445312 449.765625 C 51.570312 449.617188 49.476562 449.558594 48.320312 448.492188 L 47.953125 448.035156 L 47.746094 447.800781 C 47.746094 447.65625 47.132812 448.140625 47.335938 447.800781 L 46.78125 446.6875 C 46.472656 445.914062 45.945312 445.371094 45.828125 444.375 L 45.023438 439.714844 C 44.671875 437.636719 44.320312 435.542969 43.984375 433.492188 C 42.589844 425.230469 41.199219 417.144531 39.867188 409.277344 C 37.171875 393.457031 35.019531 378.324219 32.734375 363.910156 C 28.164062 335.113281 24.222656 309.097656 19.519531 286.1875 C 18.421875 280.414062 17.351562 274.847656 16.339844 269.441406 C 15.300781 264.050781 14.480469 258.660156 13.585938 253.535156 C 12.722656 248.40625 11.902344 243.425781 11.097656 238.652344 C 10.363281 233.890625 9.707031 229.320312 9.046875 224.910156 C 8.371094 220.503906 7.757812 216.3125 7.15625 212.253906 C 6.835938 210.308594 6.570312 208.109375 6.378906 206.148438 C 6.175781 204.140625 6 202.175781 5.882812 200.171875 L 5.851562 199.363281 L 5.824219 198.121094 C 5.792969 197.300781 5.765625 196.492188 5.824219 195.601562 C 5.851562 194.722656 5.851562 193.855469 6 193.082031 C 6.085938 192.230469 6.175781 191.425781 6.410156 190.722656 C 7.128906 187.71875 8.429688 185.769531 10.65625 184.496094 C 13.089844 183.25 15.332031 183.367188 17.644531 184.246094 C 18.917969 184.730469 20.222656 185.535156 21.46875 186.472656 C 21.261719 184.554688 21.027344 182.535156 20.707031 180.21875 C 19.871094 173.847656 18.230469 165.90625 15.902344 156.460938 C 13.585938 147.011719 10.421875 136.070312 7.390625 123.355469 C 5.910156 116.980469 4.609375 110.886719 3.742188 105.101562 C 3.332031 102.203125 2.863281 99.417969 2.660156 96.664062 C 2.558594 95.300781 2.410156 93.96875 2.292969 92.636719 C 2.207031 92.007812 2.207031 91.332031 2.175781 90.671875 C 2.148438 89.78125 2.117188 88.902344 2.089844 88.007812 C 2.058594 86.878906 2.03125 85.765625 2 84.667969 C 2 83.628906 2.03125 82.585938 2.058594 81.546875 L 2.089844 80.039062 C 2.324219 79.714844 3.011719 79.773438 3.480469 79.628906 C 4.460938 79.453125 5.441406 79.292969 6.4375 79.085938 C 8.402344 78.734375 10.394531 78.648438 12.3125 78.414062 C 13.382812 78.308594 13.9375 78.457031 14.570312 78.457031 C 15.214844 78.5 15.84375 78.53125 16.457031 78.589844 C 21.4375 79.203125 25.644531 80.992188 28.96875 82.96875 C 31.78125 84.710938 34.007812 86.46875 35.898438 88.183594 C 35.867188 86.851562 35.808594 85.515625 35.839844 83.890625 C 35.867188 82.292969 36.191406 79.175781 37.683594 77.195312 C 39.074219 75.085938 41.800781 73.695312 43.515625 73.109375 C 45.273438 72.480469 46.808594 72.128906 48.4375 71.761719 C 51.425781 71.382812 54.515625 70.914062 57.472656 70.941406 C 57.414062 70.445312 57.355469 69.871094 57.238281 69.050781 C 56.933594 66.882812 56.257812 63.589844 55.421875 58.914062 C 55.011719 56.542969 54.484375 53.90625 54.355469 50.550781 C 54.355469 49.65625 54.296875 48.808594 54.382812 47.796875 C 54.425781 47.253906 54.484375 46.699219 54.542969 46.113281 C 54.632812 45.453125 54.925781 44.808594 55.101562 44.121094 L 55.421875 43.140625 C 55.570312 42.816406 55.746094 42.496094 55.90625 42.203125 C 56.230469 41.574219 56.550781 40.925781 57.121094 40.503906 C 57.621094 39.976562 58.148438 39.449219 58.808594 39.140625 C 59.453125 38.761719 60.023438 38.261719 60.753906 38.011719 C 61.355469 37.808594 62 37.574219 62.628906 37.367188 C 63.15625 37.222656 63.640625 37.105469 64.167969 36.988281 C 64.609375 36.882812 65.003906 36.796875 65.441406 36.738281 C 65.441406 36.695312 65.441406 36.695312 65.441406 36.679688 C 65.441406 36.679688 65.675781 32.738281 65.824219 24.988281 C 65.765625 23.085938 65.617188 20.945312 65.472656 18.574219 C 65.382812 17.386719 65.296875 16.144531 65.207031 14.824219 C 65.03125 12.421875 64.828125 9.933594 64.609375 7.324219 C 64.550781 6.695312 64.519531 6.019531 64.460938 5.390625 L 64.402344 4.863281 C 64.492188 4.777344 64.710938 4.804688 64.855469 4.746094 L 65.882812 4.585938 C 67.214844 4.320312 68.578125 4.058594 69.953125 3.824219 C 72.136719 3.414062 74.363281 3.019531 76.675781 2.578125 C 80.105469 1.917969 83.78125 1.65625 87.664062 1.097656 C 91.574219 0.675781 95.28125 0.527344 98.722656 0.234375 C 100.464844 0.0898438 102.152344 0.144531 103.761719 0.0898438 C 106.429688 0.0898438 108.976562 0.0585938 111.410156 0.0273438 C 112.082031 0 112.742188 0 113.386719 0 L 113.882812 0 C 113.957031 0.0898438 113.929688 0.292969 113.988281 0.441406 L 114.132812 1.363281 C 114.339844 2.605469 114.515625 3.824219 114.71875 5.011719 C 115.042969 7.015625 115.347656 8.921875 115.671875 10.722656 C 115.875 11.792969 116.050781 12.773438 116.226562 13.726562 C 116.800781 13.550781 117.386719 13.417969 117.898438 13.300781 C 121.355469 12.566406 124.242188 12.597656 126.996094 12.65625 C 129.808594 12.746094 132.355469 12.980469 134.992188 13.332031 C 137.570312 13.667969 140.207031 14.164062 142.960938 15.324219 C 144.292969 15.878906 145.746094 16.742188 147.019531 17.8125 C 148.324219 18.96875 149.332031 20.390625 150.050781 21.8125 C 151.472656 24.742188 151.617188 27.113281 151.910156 29.238281 C 152.292969 33.367188 152.351562 36.648438 152.554688 39.566406 C 152.730469 42.40625 153.070312 44.984375 153.304688 47.195312 C 153.597656 49.480469 153.800781 51.386719 153.992188 52.925781 C 154.285156 56.175781 154.429688 57.789062 154.429688 57.789062 C 154.429688 58.167969 154.371094 58.519531 154.34375 58.828125 C 154.546875 58.855469 154.753906 58.886719 154.957031 58.886719 C 154.929688 58.667969 154.898438 58.460938 154.898438 58.199219 C 154.898438 58.199219 155.046875 55.238281 155.382812 47.796875 C 155.53125 44.121094 155.824219 39.257812 155.882812 33.191406 C 155.910156 30.144531 156 26.761719 155.941406 23.058594 C 155.734375 18.308594 155.53125 13.125 155.308594 7.472656 C 155.414062 8.6875 155.441406 8.714844 155.414062 7.761719 C 155.414062 7.617188 155.414062 7.472656 155.414062 7.292969 C 155.441406 7.121094 155.308594 6.839844 155.53125 6.8125 C 156 6.722656 156.527344 6.605469 157.097656 6.488281 C 158.3125 6.253906 159.820312 5.949219 161.507812 5.566406 C 163.644531 4.980469 166.371094 4.234375 169.460938 3.414062 C 172.359375 2.753906 175.523438 1.890625 179.800781 2.019531 C 180.710938 2.019531 181.75 2.199219 182.761719 2.460938 C 183.890625 2.785156 184.914062 3.207031 185.808594 3.765625 C 186.761719 4.261719 187.507812 5.011719 188.296875 5.683594 C 188.957031 6.429688 189.601562 7.175781 190.085938 7.96875 C 192.035156 11.105469 192.691406 14.046875 193.25 16.714844 C 194.203125 22.015625 194.289062 26.617188 194.789062 30.496094 C 194.875 31.496094 195.050781 32.386719 195.199219 33.308594 C 195.375 34.292969 195.535156 35.257812 195.679688 36.210938 C 196.03125 38.085938 196.355469 39.917969 196.664062 41.628906 C 197.277344 45.101562 197.847656 48.265625 198.375 51.035156 C 199.359375 56.6875 200.03125 61.128906 200.457031 64.042969 C 200.484375 64.277344 200.484375 64.421875 200.53125 64.628906 C 201.246094 64.480469 201.9375 64.363281 202.609375 64.304688 C 203.445312 64.1875 204.265625 64.160156 205.101562 64.101562 C 204.808594 63.179688 204.542969 62.136719 204.457031 60.835938 C 204.457031 60.835938 204.457031 60.25 204.484375 59.148438 C 204.542969 58.050781 204.601562 56.367188 204.660156 54.167969 C 204.71875 51.914062 204.894531 49.363281 205.042969 46.171875 C 205.160156 44.589844 205.160156 42.964844 205.1875 41.191406 C 205.128906 39.566406 205.394531 37.132812 205.101562 36.445312 C 204.71875 34.585938 204.175781 32.328125 203.679688 29.839844 C 203.445312 28.566406 203.210938 27.261719 203.0625 25.722656 C 202.933594 24.507812 202.816406 21.519531 203.707031 19.46875 C 204.148438 18.367188 204.925781 17.433594 205.714844 16.507812 C 206.609375 15.792969 207.503906 14.78125 208.542969 14.3125 C 209.421875 13.785156 210.199219 13.417969 210.972656 13.125 C 211.792969 12.746094 212.570312 12.511719 213.363281 12.261719 C 216.511719 11.265625 219.675781 10.664062 222.972656 10.195312 C 226.28125 9.785156 229.664062 9.519531 233.371094 9.59375 C 236.8125 9.710938 241.839844 9.933594 246.085938 13.417969 C 248.179688 15.089844 249.792969 17.535156 250.613281 19.878906 C 251.449219 22.222656 251.769531 24.507812 251.945312 26.675781 C 252.035156 27.890625 252.09375 29.121094 252.09375 30.292969 C 252.957031 29.808594 253.851562 29.3125 254.730469 29.003906 C 256.574219 28.242188 258.316406 27.847656 259.988281 27.523438 C 260.835938 27.40625 261.644531 27.289062 262.464844 27.171875 C 263.210938 27.113281 263.929688 27.027344 264.632812 26.9375 C 266.050781 26.792969 267.472656 26.644531 268.921875 26.527344 C 271.78125 26.367188 274.652344 26.101562 278.210938 26.851562 C 279.953125 27.203125 282.0625 28.125 283.660156 29.632812 C 285.375 31.144531 286.265625 32.957031 286.882812 34.527344 C 288.84375 40.753906 288.039062 45.042969 288.363281 48.542969 C 288.480469 52.234375 288.523438 55.472656 288.609375 58.257812 C 288.726562 61.070312 288.667969 63.5 288.609375 65.476562 C 288.582031 67.410156 288.550781 68.890625 288.550781 69.871094 C 288.507812 70.546875 288.480469 70.941406 288.449219 71.175781 C 291.128906 71.382812 293.167969 71.761719 294.644531 71.953125 C 295.453125 72.097656 296.039062 72.214844 296.519531 72.304688 C 296.550781 71.953125 296.609375 71.617188 296.636719 71.265625 C 297.136719 68.101562 297.164062 65.332031 298.117188 61.097656 C 298.792969 58.433594 300.460938 55.824219 302.980469 54.578125 C 304.253906 53.933594 305.589844 53.539062 306.773438 53.335938 C 307.757812 53.160156 308.753906 53.042969 309.617188 53.011719 C 311.390625 52.867188 313.015625 52.867188 314.625 52.835938 C 316.164062 52.835938 317.671875 52.808594 319.210938 52.777344 C 322.359375 52.808594 325.980469 52.660156 330.035156 54.433594 C 331.03125 54.785156 331.984375 55.5625 332.90625 56.21875 C 333.890625 56.863281 334.445312 57.757812 335.25 58.738281 L 335.835938 59.472656 L 336.203125 60.367188 C 336.46875 60.953125 336.761719 61.550781 336.847656 62.050781 C 337.171875 63.089844 337.316406 64.011719 337.433594 64.921875 Z M 96.085938 40.269531 C 96.613281 40.898438 97.066406 41.484375 97.449219 42.070312 C 97.828125 42.671875 98.0625 43.242188 98.386719 43.828125 C 99.015625 45.042969 99.28125 46.082031 99.675781 47.195312 C 100.320312 49.304688 100.789062 51.269531 101.125 53.160156 C 101.828125 56.894531 102.195312 60.277344 102.488281 63.355469 C 103.042969 69.492188 103.25 74.472656 103.425781 78.382812 C 103.675781 86.207031 103.792969 89.824219 103.792969 89.824219 C 103.761719 89.96875 103.734375 90.117188 103.703125 90.261719 C 104.113281 90.378906 104.523438 90.527344 104.917969 90.671875 C 104.949219 90.203125 105.007812 89.75 105.09375 89.195312 C 105.242188 87.714844 105.445312 85.898438 105.710938 83.6875 C 105.796875 81.460938 105.886719 78.882812 106.003906 75.921875 C 106.28125 70.046875 106.28125 62.546875 106.28125 53.65625 C 106.3125 49.160156 106.371094 44.296875 106.429688 39.082031 C 106.457031 36.472656 106.574219 33.867188 106.691406 31.027344 C 106.691406 30.703125 106.722656 30.367188 106.75 30.042969 C 106.75 29.574219 106.75 28.417969 106.78125 26.675781 C 106.691406 24.332031 106.898438 21.003906 106.515625 16.800781 C 106.371094 14.898438 106.195312 12.746094 106.03125 10.488281 C 106.03125 10.105469 106.03125 9.710938 106.046875 9.300781 C 106.121094 8.980469 105.855469 9.066406 105.679688 9.007812 L 105.035156 8.921875 L 104.730469 8.890625 C 104.582031 8.863281 104.582031 8.863281 104.144531 8.863281 C 103.441406 8.832031 102.75 8.804688 102.035156 8.773438 C 100.613281 8.6875 99.164062 8.6875 97.683594 8.804688 C 94.722656 8.980469 91.664062 9.007812 88.558594 9.390625 C 85.421875 9.785156 82.390625 10.195312 79.488281 10.691406 C 78.128906 10.988281 76.824219 11.265625 75.550781 11.558594 C 75.082031 11.703125 74.65625 11.851562 74.214844 11.96875 C 73.921875 11.96875 74.128906 12.304688 74.128906 12.511719 L 74.304688 13.152344 L 74.449219 13.667969 C 74.539062 14.3125 74.625 14.925781 74.714844 15.527344 C 75.109375 18.046875 75.492188 20.390625 75.8125 22.542969 C 76.617188 29.3125 77.175781 34.011719 77.378906 35.742188 C 80.339844 35.742188 83.371094 35.859375 86.710938 36.296875 C 89.261719 36.765625 91.882812 37.074219 94.386719 38.816406 C 94.871094 39.199219 95.25 39.550781 95.632812 39.769531 C 95.835938 39.945312 95.96875 40.152344 96.085938 40.269531 " fill-opacity="1" fill-rule="nonzero"/><path fill="#57595b" d="M 257.847656 418.796875 C 276.570312 423.265625 287.277344 428.628906 286.882812 429.753906 C 286.414062 431.148438 275.089844 428.21875 256.574219 425.582031 C 247.300781 424.363281 236.273438 423.089844 223.921875 422.476562 C 220.890625 422.359375 217.757812 422.253906 214.546875 422.125 C 211.355469 422.019531 207.941406 422.078125 204.542969 422.019531 C 197.777344 421.992188 190.730469 421.933594 183.523438 421.902344 C 176.242188 421.785156 169.546875 421.902344 162.867188 422.035156 C 159.46875 422.253906 156.117188 422.476562 152.863281 422.679688 C 149.773438 422.828125 146.609375 423.425781 143.605469 423.75 C 140.558594 424.128906 137.570312 424.511719 134.699219 424.847656 C 131.8125 425.257812 129 425.84375 126.277344 426.296875 C 120.796875 427.234375 115.699219 428.101562 111.042969 428.90625 C 106.3125 429.695312 102.035156 430.386719 98.285156 430.914062 C 94.546875 431.324219 91.3125 431.542969 88.644531 431.71875 C 83.34375 432.011719 80.339844 431.863281 80.238281 431.191406 C 80.132812 430.53125 82.917969 429.402344 88.042969 427.953125 C 90.578125 427.234375 93.742188 426.414062 97.390625 425.523438 C 101.023438 424.480469 105.09375 423.355469 109.652344 422.125 C 114.105469 420.90625 119.230469 419.664062 124.679688 418.359375 C 127.40625 417.730469 130.1875 416.953125 133.175781 416.394531 C 136.148438 415.898438 139.226562 415.386719 142.347656 414.828125 C 145.539062 414.359375 148.675781 413.640625 152.144531 413.347656 C 155.382812 413.070312 158.722656 412.777344 162.105469 412.484375 C 169.035156 412.191406 176.417969 411.988281 183.609375 412.132812 C 190.847656 412.222656 197.878906 412.339844 204.71875 412.425781 C 208.148438 412.542969 211.441406 412.574219 214.769531 412.808594 C 218.109375 413.042969 221.375 413.277344 224.566406 413.464844 C 237.222656 414.625 248.488281 416.660156 257.847656 418.796875 " fill-opacity="1" fill-rule="nonzero"/></g></g></g></svg>