<?xml version="1.0" standalone="no"?>
<!DOCTYPE svg PUBLIC "-//W3C//DTD SVG 20010904//EN"
 "http://www.w3.org/TR/2001/REC-SVG-20010904/DTD/svg10.dtd">
<svg version="1.0" xmlns="http://www.w3.org/2000/svg"
 width="200.000000pt" height="200.000000pt" viewBox="0 0 200.000000 200.000000"
 preserveAspectRatio="xMidYMid meet">

<g transform="translate(0.000000,200.000000) scale(0.100000,-0.100000)"
fill="#000000" stroke="none">
<path d="M898 1885 c-15 -8 -32 -31 -39 -50 -13 -35 -14 -35 -72 -35 -73 0
-112 -19 -128 -65 -13 -35 -14 -35 -72 -35 -67 0 -108 -18 -125 -55 -7 -14
-12 -66 -12 -115 l0 -90 -29 0 c-16 0 -39 -8 -51 -18 l-23 -18 67 -555 c90
-743 87 -718 103 -735 21 -21 945 -21 966 0 16 17 13 -8 103 735 l67 555 -23
18 c-12 10 -35 18 -51 18 l-29 0 0 90 c0 49 -5 101 -12 115 -17 37 -58 55
-125 55 -58 0 -59 0 -72 35 -16 46 -55 65 -128 65 -58 0 -59 0 -72 35 -7 21
-24 41 -41 50 -38 20 -165 19 -202 0z m152 -330 l0 -245 -50 0 -50 0 0 245 0
245 50 0 50 0 0 -245z m-200 -35 l0 -181 -22 12 c-13 7 -35 21 -50 33 l-28 20
0 148 0 148 50 0 50 0 0 -180z m400 31 c0 -148 0 -149 -25 -165 -14 -9 -36
-23 -50 -32 l-25 -16 0 181 0 181 50 0 50 0 0 -149z m-600 -31 l0 -80 -50 0
-50 0 0 80 0 80 50 0 50 0 0 -80z m800 0 l0 -80 -50 0 -50 0 0 80 0 80 50 0
50 0 0 -80z m-716 -225 c169 -113 363 -113 532 0 l67 45 103 0 c95 0 104 -2
104 -19 0 -10 -29 -258 -65 -552 -36 -294 -65 -542 -65 -551 0 -17 -26 -18
-410 -18 -375 0 -410 1 -410 17 0 9 -29 256 -65 550 -36 293 -65 542 -65 553
0 19 7 20 104 20 l103 0 67 -45z"/>
</g>
</svg>
