<?xml version="1.0" standalone="no"?>
<!DOCTYPE svg PUBLIC "-//W3C//DTD SVG 20010904//EN"
 "http://www.w3.org/TR/2001/REC-SVG-20010904/DTD/svg10.dtd">
<svg version="1.0" xmlns="http://www.w3.org/2000/svg"
 width="200.000000pt" height="200.000000pt" viewBox="0 0 200.000000 200.000000"
 preserveAspectRatio="xMidYMid meet">

<g transform="translate(0.000000,200.000000) scale(0.100000,-0.100000)"
fill="#000000" stroke="none">
<path d="M810 1589 c-317 -39 -578 -179 -638 -342 -26 -68 -28 -110 -6 -131
14 -14 103 -16 834 -16 930 0 857 -7 847 82 -21 175 -232 325 -547 389 -111
23 -376 33 -490 18z m484 -119 c191 -40 345 -118 413 -208 18 -24 33 -48 33
-53 0 -5 -295 -9 -740 -9 -407 0 -740 4 -740 8 0 19 62 94 103 123 96 72 275
135 449 158 114 15 366 5 482 -19z"/>
<path d="M212 1058 c-13 -13 -15 -37 -6 -62 3 -8 22 -18 42 -22 21 -3 57 -15
82 -27 60 -28 150 -28 207 1 53 28 112 28 165 1 58 -29 147 -30 212 -1 62 28
115 28 169 0 57 -29 146 -29 206 0 57 28 105 28 167 0 31 -13 69 -21 104 -21
35 0 73 8 104 21 27 12 58 22 70 22 51 0 85 57 54 88 -19 19 -99 14 -142 -7
-65 -33 -89 -34 -155 -7 -77 33 -157 34 -221 5 -58 -28 -114 -28 -167 -1 -61
32 -144 30 -228 -5 l-65 -27 -65 27 c-84 35 -167 37 -228 5 -23 -11 -60 -21
-82 -21 -22 0 -59 10 -82 21 -46 24 -122 29 -141 10z"/>
<path d="M178 879 c-43 -22 -78 -81 -78 -129 0 -45 34 -105 74 -128 22 -13 36
-30 41 -50 10 -47 59 -108 112 -139 l48 -28 604 -3 c541 -2 609 -1 654 14 64
21 131 87 148 144 9 29 23 49 45 64 41 26 74 83 74 125 0 51 -35 108 -80 131
-38 20 -57 20 -822 20 -760 -1 -784 -1 -820 -21z m1606 -95 c20 -20 20 -48 0
-68 -14 -14 -99 -16 -784 -16 -685 0 -770 2 -784 16 -9 8 -16 24 -16 34 0 10
7 26 16 34 14 14 99 16 784 16 685 0 770 -2 784 -16z m-111 -215 c-10 -17 -35
-39 -55 -50 -35 -18 -67 -19 -619 -19 -515 0 -585 2 -615 16 -30 14 -74 61
-74 78 0 3 311 6 691 6 l690 0 -18 -31z"/>
</g>
</svg>
