<svg xmlns="http://www.w3.org/2000/svg" xmlns:xlink="http://www.w3.org/1999/xlink" width="600" zoomAndPan="magnify" viewBox="0 0 450 449.999984" height="600" preserveAspectRatio="xMidYMid meet" version="1.0"><defs><g/><clipPath id="c8319bccdc"><path d="M 185 45 L 244 45 L 244 101.535156 L 185 101.535156 Z M 185 45 " clip-rule="nonzero"/></clipPath><clipPath id="5ecd3928b4"><path d="M 215.386719 45.546875 L 223.695312 62.417969 C 223.824219 62.714844 224.117188 62.925781 224.457031 62.96875 L 243.054688 65.667969 C 243.859375 65.792969 244.195312 66.804688 243.605469 67.355469 L 230.148438 80.472656 C 229.898438 80.683594 229.8125 81.019531 229.855469 81.359375 L 233.019531 99.917969 C 233.144531 100.71875 232.300781 101.351562 231.585938 100.972656 L 214.921875 92.199219 C 214.628906 92.027344 214.289062 92.027344 213.996094 92.199219 L 197.335938 100.972656 C 196.617188 101.351562 195.773438 100.71875 195.902344 99.917969 L 199.0625 81.359375 C 199.105469 81.019531 199.023438 80.726562 198.769531 80.472656 L 185.355469 67.355469 C 184.765625 66.765625 185.101562 65.792969 185.90625 65.667969 L 204.503906 62.96875 C 204.84375 62.925781 205.097656 62.714844 205.265625 62.417969 L 213.574219 45.546875 C 213.953125 44.832031 215.007812 44.832031 215.386719 45.546875 Z M 215.386719 45.546875 " clip-rule="nonzero"/></clipPath><clipPath id="a5ed61abd7"><path d="M 265 63.539062 L 304.488281 63.539062 L 304.488281 101.390625 L 265 101.390625 Z M 265 63.539062 " clip-rule="nonzero"/></clipPath><clipPath id="4290db8997"><path d="M 285.257812 64.050781 L 290.796875 75.304688 C 290.882812 75.5 291.078125 75.640625 291.304688 75.667969 L 303.710938 77.46875 C 304.242188 77.554688 304.46875 78.230469 304.074219 78.59375 L 295.101562 87.34375 C 294.933594 87.484375 294.875 87.707031 294.90625 87.933594 L 297.015625 100.308594 C 297.097656 100.84375 296.535156 101.265625 296.058594 101.011719 L 284.949219 95.164062 C 284.75 95.050781 284.527344 95.050781 284.328125 95.164062 L 273.21875 101.011719 C 272.738281 101.265625 272.175781 100.84375 272.261719 100.308594 L 274.371094 87.933594 C 274.398438 87.707031 274.34375 87.511719 274.175781 87.34375 L 265.230469 78.59375 C 264.835938 78.199219 265.0625 77.554688 265.59375 77.46875 L 278 75.667969 C 278.226562 75.640625 278.394531 75.5 278.507812 75.304688 L 284.046875 64.050781 C 284.300781 63.574219 285.003906 63.574219 285.257812 64.050781 Z M 285.257812 64.050781 " clip-rule="nonzero"/></clipPath><clipPath id="34654778b3"><path d="M 124.484375 63.539062 L 164.230469 63.539062 L 164.230469 101.390625 L 124.484375 101.390625 Z M 124.484375 63.539062 " clip-rule="nonzero"/></clipPath><clipPath id="f8cb0d1bbc"><path d="M 145 64.050781 L 150.539062 75.304688 C 150.625 75.5 150.820312 75.640625 151.046875 75.667969 L 163.453125 77.46875 C 163.984375 77.554688 164.210938 78.230469 163.816406 78.59375 L 154.84375 87.34375 C 154.675781 87.484375 154.621094 87.707031 154.648438 87.933594 L 156.757812 100.308594 C 156.839844 100.84375 156.277344 101.265625 155.800781 101.011719 L 144.691406 95.164062 C 144.492188 95.050781 144.269531 95.050781 144.070312 95.164062 L 132.960938 101.011719 C 132.484375 101.265625 131.921875 100.84375 132.003906 100.308594 L 134.113281 87.933594 C 134.140625 87.707031 134.085938 87.511719 133.917969 87.34375 L 124.972656 78.59375 C 124.578125 78.199219 124.804688 77.554688 125.339844 77.46875 L 137.742188 75.667969 C 137.96875 75.640625 138.136719 75.5 138.25 75.304688 L 143.789062 64.050781 C 144.042969 63.574219 144.746094 63.574219 145 64.050781 Z M 145 64.050781 " clip-rule="nonzero"/></clipPath></defs><rect x="-45" width="540" fill="#ffcb30" y="-44.999998" height="539.99998" fill-opacity="1"/><rect x="-45" width="540" fill="#ffcb30" y="-44.999998" height="539.99998" fill-opacity="1"/><path stroke-linecap="butt" transform="matrix(0.75, 0, 0, 0.75, -35.174949, 399.200712)" fill="none" stroke-linejoin="miter" d="M -0.00110995 2.998009 L 678.82186 2.998009 " stroke="#2e2e2e" stroke-width="6" stroke-opacity="1" stroke-miterlimit="4"/><path stroke-linecap="butt" transform="matrix(0.75, 0, 0, 0.75, -40.056782, 95.344337)" fill="none" stroke-linejoin="miter" d="M -0.00241576 2.999218 L 181.356973 2.999218 " stroke="#2e2e2e" stroke-width="6" stroke-opacity="1" stroke-miterlimit="4"/><g clip-path="url(#c8319bccdc)"><g clip-path="url(#5ecd3928b4)"><path fill="#2e2e2e" d="M 185.0625 45 L 244.007812 45 L 244.007812 101.097656 L 185.0625 101.097656 Z M 185.0625 45 " fill-opacity="1" fill-rule="nonzero"/></g></g><g clip-path="url(#a5ed61abd7)"><g clip-path="url(#4290db8997)"><path fill="#2e2e2e" d="M 265.03125 63.6875 L 304.34375 63.6875 L 304.34375 101.097656 L 265.03125 101.097656 Z M 265.03125 63.6875 " fill-opacity="1" fill-rule="nonzero"/></g></g><g clip-path="url(#34654778b3)"><g clip-path="url(#f8cb0d1bbc)"><path fill="#2e2e2e" d="M 124.773438 63.6875 L 164.085938 63.6875 L 164.085938 101.097656 L 124.773438 101.097656 Z M 124.773438 63.6875 " fill-opacity="1" fill-rule="nonzero"/></g></g><path stroke-linecap="butt" transform="matrix(0.75, 0, 0, 0.75, 321.163577, 91.96333)" fill="none" stroke-linejoin="miter" d="M 0.000647687 3.002019 L 181.360037 3.002019 " stroke="#2e2e2e" stroke-width="6" stroke-opacity="1" stroke-miterlimit="4"/><g fill="#2e2e2e" fill-opacity="1"><g transform="translate(107.224172, 160.136331)"><g><path d="M 4.25 -35.890625 L 12.5625 -35.890625 L 12.5625 -6.765625 L 30.546875 -6.765625 L 30.546875 0 L 4.25 0 Z M 4.25 -35.890625 "/></g></g></g><g fill="#2e2e2e" fill-opacity="1"><g transform="translate(144.022133, 160.136331)"><g><path d="M 20.203125 0.609375 C 15.078125 0.609375 11.085938 -0.804688 8.234375 -3.640625 C 5.378906 -6.472656 3.953125 -10.523438 3.953125 -15.796875 L 3.953125 -35.890625 L 12.25 -35.890625 L 12.25 -16.09375 C 12.25 -9.664062 14.914062 -6.453125 20.25 -6.453125 C 22.84375 -6.453125 24.820312 -7.226562 26.1875 -8.78125 C 27.5625 -10.34375 28.25 -12.78125 28.25 -16.09375 L 28.25 -35.890625 L 36.453125 -35.890625 L 36.453125 -15.796875 C 36.453125 -10.523438 35.023438 -6.472656 32.171875 -3.640625 C 29.316406 -0.804688 25.328125 0.609375 20.203125 0.609375 Z M 20.203125 0.609375 "/></g></g></g><g fill="#2e2e2e" fill-opacity="1"><g transform="translate(190.249158, 160.136331)"><g><path d="M 37.171875 -35.890625 L 37.171875 0 L 30.34375 0 L 12.453125 -21.78125 L 12.453125 0 L 4.25 0 L 4.25 -35.890625 L 11.125 -35.890625 L 28.96875 -14.09375 L 28.96875 -35.890625 Z M 37.171875 -35.890625 "/></g></g></g><g fill="#2e2e2e" fill-opacity="1"><g transform="translate(237.50108, 160.136331)"><g><path d="M 21.421875 0.609375 C 17.765625 0.609375 14.457031 -0.179688 11.5 -1.765625 C 8.550781 -3.359375 6.226562 -5.5625 4.53125 -8.375 C 2.84375 -11.195312 2 -14.382812 2 -17.9375 C 2 -21.5 2.84375 -24.6875 4.53125 -27.5 C 6.226562 -30.320312 8.550781 -32.523438 11.5 -34.109375 C 14.457031 -35.703125 17.785156 -36.5 21.484375 -36.5 C 24.585938 -36.5 27.394531 -35.953125 29.90625 -34.859375 C 32.425781 -33.765625 34.539062 -32.191406 36.25 -30.140625 L 30.90625 -25.21875 C 28.476562 -28.019531 25.472656 -29.421875 21.890625 -29.421875 C 19.671875 -29.421875 17.6875 -28.929688 15.9375 -27.953125 C 14.195312 -26.984375 12.835938 -25.628906 11.859375 -23.890625 C 10.890625 -22.148438 10.40625 -20.164062 10.40625 -17.9375 C 10.40625 -15.71875 10.890625 -13.734375 11.859375 -11.984375 C 12.835938 -10.242188 14.195312 -8.882812 15.9375 -7.90625 C 17.6875 -6.9375 19.671875 -6.453125 21.890625 -6.453125 C 25.472656 -6.453125 28.476562 -7.875 30.90625 -10.71875 L 36.25 -5.796875 C 34.539062 -3.710938 32.421875 -2.125 29.890625 -1.03125 C 27.359375 0.0625 24.535156 0.609375 21.421875 0.609375 Z M 21.421875 0.609375 "/></g></g></g><g fill="#2e2e2e" fill-opacity="1"><g transform="translate(280.909625, 160.136331)"><g><path d="M 37.171875 -35.890625 L 37.171875 0 L 28.859375 0 L 28.859375 -14.71875 L 12.5625 -14.71875 L 12.5625 0 L 4.25 0 L 4.25 -35.890625 L 12.5625 -35.890625 L 12.5625 -21.734375 L 28.859375 -21.734375 L 28.859375 -35.890625 Z M 37.171875 -35.890625 "/></g></g></g><g fill="#2e2e2e" fill-opacity="1"><g transform="translate(328.18025, 160.136331)"><g/></g></g><g fill="#2e2e2e" fill-opacity="1"><g transform="translate(53.650239, 227.686073)"><g/></g></g><g fill="#2e2e2e" fill-opacity="1"><g transform="translate(94.376619, 227.686073)"><g><path d="M 11.6875 -29.125 L 0.203125 -29.125 L 0.203125 -35.890625 L 31.484375 -35.890625 L 31.484375 -29.125 L 20 -29.125 L 20 0 L 11.6875 0 Z M 11.6875 -29.125 "/></g></g></g><g fill="#2e2e2e" fill-opacity="1"><g transform="translate(131.892003, 227.686073)"><g><path d="M 4.25 -35.890625 L 12.5625 -35.890625 L 12.5625 0 L 4.25 0 Z M 4.25 -35.890625 "/></g></g></g><g fill="#2e2e2e" fill-opacity="1"><g transform="translate(154.546398, 227.686073)"><g><path d="M 16.046875 0.609375 C 13.210938 0.609375 10.46875 0.226562 7.8125 -0.53125 C 5.164062 -1.300781 3.039062 -2.300781 1.4375 -3.53125 L 4.25 -9.796875 C 5.789062 -8.660156 7.617188 -7.75 9.734375 -7.0625 C 11.859375 -6.382812 13.976562 -6.046875 16.09375 -6.046875 C 18.457031 -6.046875 20.203125 -6.394531 21.328125 -7.09375 C 22.453125 -7.800781 23.015625 -8.734375 23.015625 -9.890625 C 23.015625 -10.742188 22.679688 -11.453125 22.015625 -12.015625 C 21.347656 -12.585938 20.492188 -13.039062 19.453125 -13.375 C 18.410156 -13.71875 17 -14.097656 15.21875 -14.515625 C 12.488281 -15.160156 10.25 -15.804688 8.5 -16.453125 C 6.757812 -17.109375 5.265625 -18.148438 4.015625 -19.578125 C 2.773438 -21.015625 2.15625 -22.929688 2.15625 -25.328125 C 2.15625 -27.410156 2.71875 -29.296875 3.84375 -30.984375 C 4.96875 -32.679688 6.664062 -34.023438 8.9375 -35.015625 C 11.21875 -36.003906 14 -36.5 17.28125 -36.5 C 19.570312 -36.5 21.804688 -36.222656 23.984375 -35.671875 C 26.171875 -35.128906 28.085938 -34.347656 29.734375 -33.328125 L 27.171875 -27.015625 C 23.859375 -28.898438 20.539062 -29.84375 17.21875 -29.84375 C 14.894531 -29.84375 13.175781 -29.460938 12.0625 -28.703125 C 10.957031 -27.953125 10.40625 -26.960938 10.40625 -25.734375 C 10.40625 -24.503906 11.046875 -23.585938 12.328125 -22.984375 C 13.609375 -22.390625 15.566406 -21.800781 18.203125 -21.21875 C 20.929688 -20.570312 23.164062 -19.921875 24.90625 -19.265625 C 26.65625 -18.617188 28.148438 -17.59375 29.390625 -16.1875 C 30.640625 -14.789062 31.265625 -12.898438 31.265625 -10.515625 C 31.265625 -8.460938 30.691406 -6.585938 29.546875 -4.890625 C 28.410156 -3.203125 26.695312 -1.863281 24.40625 -0.875 C 22.113281 0.113281 19.328125 0.609375 16.046875 0.609375 Z M 16.046875 0.609375 "/></g></g></g><g fill="#2e2e2e" fill-opacity="1"><g transform="translate(193.086685, 227.686073)"><g><path d="M 2.671875 -17.640625 L 17.171875 -17.640625 L 17.171875 -11.234375 L 2.671875 -11.234375 Z M 2.671875 -17.640625 "/></g></g></g><g fill="#2e2e2e" fill-opacity="1"><g transform="translate(218.713301, 227.686073)"><g><path d="M 12.5625 -29.21875 L 12.5625 -19.734375 L 29.171875 -19.734375 L 29.171875 -13.078125 L 12.5625 -13.078125 L 12.5625 0 L 4.25 0 L 4.25 -35.890625 L 31.375 -35.890625 L 31.375 -29.21875 Z M 12.5625 -29.21875 "/></g></g></g><g fill="#2e2e2e" fill-opacity="1"><g transform="translate(257.304832, 227.686073)"><g><path d="M 27.125 0 L 20.203125 -10 L 12.5625 -10 L 12.5625 0 L 4.25 0 L 4.25 -35.890625 L 19.78125 -35.890625 C 22.96875 -35.890625 25.726562 -35.359375 28.0625 -34.296875 C 30.40625 -33.234375 32.207031 -31.726562 33.46875 -29.78125 C 34.738281 -27.832031 35.375 -25.523438 35.375 -22.859375 C 35.375 -20.191406 34.734375 -17.894531 33.453125 -15.96875 C 32.171875 -14.039062 30.347656 -12.5625 27.984375 -11.53125 L 36.046875 0 Z M 26.96875 -22.859375 C 26.96875 -24.878906 26.316406 -26.425781 25.015625 -27.5 C 23.710938 -28.582031 21.816406 -29.125 19.328125 -29.125 L 12.5625 -29.125 L 12.5625 -16.609375 L 19.328125 -16.609375 C 21.816406 -16.609375 23.710938 -17.15625 25.015625 -18.25 C 26.316406 -19.34375 26.96875 -20.878906 26.96875 -22.859375 Z M 26.96875 -22.859375 "/></g></g></g><g fill="#2e2e2e" fill-opacity="1"><g transform="translate(300.815882, 227.686073)"><g><path d="M 32.046875 -6.671875 L 32.046875 0 L 4.25 0 L 4.25 -35.890625 L 31.375 -35.890625 L 31.375 -29.21875 L 12.515625 -29.21875 L 12.515625 -21.421875 L 29.171875 -21.421875 L 29.171875 -14.96875 L 12.515625 -14.96875 L 12.515625 -6.671875 Z M 32.046875 -6.671875 "/></g></g></g><g fill="#2e2e2e" fill-opacity="1"><g transform="translate(341.064199, 227.686073)"><g/></g></g><g fill="#2e2e2e" fill-opacity="1"><g transform="translate(361.412605, 227.686073)"><g/></g></g><g fill="#2e2e2e" fill-opacity="1"><g transform="translate(381.761012, 227.686073)"><g/></g></g><g fill="#2e2e2e" fill-opacity="1"><g transform="translate(155.593572, 295.235814)"><g><path d="M 15.84375 -35.890625 L 15.84375 0 L 7.53125 0 L 7.53125 -29.21875 L 0.359375 -29.21875 L 0.359375 -35.890625 Z M 15.84375 -35.890625 "/></g></g></g><g fill="#2e2e2e" fill-opacity="1"><g transform="translate(181.527632, 295.235814)"><g><path d="M 15.84375 -35.890625 L 15.84375 0 L 7.53125 0 L 7.53125 -29.21875 L 0.359375 -29.21875 L 0.359375 -35.890625 Z M 15.84375 -35.890625 "/></g></g></g><g fill="#2e2e2e" fill-opacity="1"><g transform="translate(207.461692, 295.235814)"><g><path d="M 2.671875 -17.640625 L 17.171875 -17.640625 L 17.171875 -11.234375 L 2.671875 -11.234375 Z M 2.671875 -17.640625 "/></g></g></g><g fill="#2e2e2e" fill-opacity="1"><g transform="translate(233.088312, 295.235814)"><g><path d="M 15.84375 -35.890625 L 15.84375 0 L 7.53125 0 L 7.53125 -29.21875 L 0.359375 -29.21875 L 0.359375 -35.890625 Z M 15.84375 -35.890625 "/></g></g></g><g fill="#2e2e2e" fill-opacity="1"><g transform="translate(259.02237, 295.235814)"><g><path d="M 34.859375 -7.53125 L 29.015625 -7.53125 L 29.015625 0 L 20.921875 0 L 20.921875 -7.53125 L 1.59375 -7.53125 L 1.59375 -13.125 L 18.5 -35.890625 L 27.21875 -35.890625 L 11.53125 -14.296875 L 21.171875 -14.296875 L 21.171875 -21.015625 L 29.015625 -21.015625 L 29.015625 -14.296875 L 34.859375 -14.296875 Z M 34.859375 -7.53125 "/></g></g></g><g fill="#2e2e2e" fill-opacity="1"><g transform="translate(60.545583, 390.153472)"><g><path d="M 15.84375 -35.890625 L 15.84375 0 L 7.53125 0 L 7.53125 -29.234375 L 0.359375 -29.234375 L 0.359375 -35.890625 Z M 15.84375 -35.890625 "/></g></g></g><g fill="#2e2e2e" fill-opacity="1"><g transform="translate(80.643003, 390.153472)"><g><path d="M 14.3125 -22.40625 C 19.363281 -22.40625 23.09375 -21.394531 25.5 -19.375 C 27.914062 -17.363281 29.125 -14.664062 29.125 -11.28125 C 29.125 -9.09375 28.578125 -7.097656 27.484375 -5.296875 C 26.390625 -3.503906 24.722656 -2.070312 22.484375 -1 C 20.242188 0.0703125 17.484375 0.609375 14.203125 0.609375 C 11.671875 0.609375 9.179688 0.273438 6.734375 -0.390625 C 4.296875 -1.054688 2.222656 -2.003906 0.515625 -3.234375 L 3.796875 -9.59375 C 5.160156 -8.5625 6.726562 -7.765625 8.5 -7.203125 C 10.28125 -6.640625 12.113281 -6.359375 14 -6.359375 C 16.082031 -6.359375 17.722656 -6.769531 18.921875 -7.59375 C 20.117188 -8.414062 20.71875 -9.5625 20.71875 -11.03125 C 20.71875 -12.5625 20.09375 -13.71875 18.84375 -14.5 C 17.59375 -15.289062 15.429688 -15.6875 12.359375 -15.6875 L 3.171875 -15.6875 L 5.03125 -35.890625 L 26.921875 -35.890625 L 26.921875 -29.234375 L 11.953125 -29.234375 L 11.390625 -22.40625 Z M 14.3125 -22.40625 "/></g></g></g><g fill="#2e2e2e" fill-opacity="1"><g transform="translate(111.148015, 390.153472)"><g><path d="M 10.3125 -16.515625 C 7.675781 -16.515625 5.53125 -17.410156 3.875 -19.203125 C 2.21875 -20.992188 1.390625 -23.394531 1.390625 -26.40625 C 1.390625 -29.414062 2.21875 -31.816406 3.875 -33.609375 C 5.53125 -35.410156 7.675781 -36.3125 10.3125 -36.3125 C 12.9375 -36.3125 15.066406 -35.410156 16.703125 -33.609375 C 18.347656 -31.816406 19.171875 -29.414062 19.171875 -26.40625 C 19.171875 -23.394531 18.347656 -20.992188 16.703125 -19.203125 C 15.066406 -17.410156 12.9375 -16.515625 10.3125 -16.515625 Z M 31.6875 -35.890625 L 37.796875 -35.890625 L 13.28125 0 L 7.171875 0 Z M 10.3125 -20.71875 C 11.46875 -20.71875 12.378906 -21.195312 13.046875 -22.15625 C 13.710938 -23.113281 14.046875 -24.53125 14.046875 -26.40625 C 14.046875 -28.289062 13.710938 -29.710938 13.046875 -30.671875 C 12.378906 -31.628906 11.46875 -32.109375 10.3125 -32.109375 C 9.175781 -32.109375 8.265625 -31.617188 7.578125 -30.640625 C 6.898438 -29.660156 6.5625 -28.25 6.5625 -26.40625 C 6.5625 -24.5625 6.898438 -23.148438 7.578125 -22.171875 C 8.265625 -21.203125 9.175781 -20.71875 10.3125 -20.71875 Z M 34.671875 0.40625 C 32.960938 0.40625 31.429688 0.00390625 30.078125 -0.796875 C 28.722656 -1.597656 27.671875 -2.75 26.921875 -4.25 C 26.171875 -5.757812 25.796875 -7.503906 25.796875 -9.484375 C 25.796875 -11.472656 26.171875 -13.21875 26.921875 -14.71875 C 27.671875 -16.21875 28.722656 -17.367188 30.078125 -18.171875 C 31.429688 -18.984375 32.960938 -19.390625 34.671875 -19.390625 C 37.296875 -19.390625 39.4375 -18.488281 41.09375 -16.6875 C 42.757812 -14.894531 43.59375 -12.492188 43.59375 -9.484375 C 43.59375 -6.472656 42.757812 -4.070312 41.09375 -2.28125 C 39.4375 -0.488281 37.296875 0.40625 34.671875 0.40625 Z M 34.671875 -3.796875 C 35.828125 -3.796875 36.738281 -4.28125 37.40625 -5.25 C 38.070312 -6.226562 38.40625 -7.640625 38.40625 -9.484375 C 38.40625 -11.328125 38.070312 -12.734375 37.40625 -13.703125 C 36.738281 -14.679688 35.828125 -15.171875 34.671875 -15.171875 C 33.535156 -15.171875 32.625 -14.691406 31.9375 -13.734375 C 31.257812 -12.785156 30.921875 -11.367188 30.921875 -9.484375 C 30.921875 -7.609375 31.257812 -6.191406 31.9375 -5.234375 C 32.625 -4.273438 33.535156 -3.796875 34.671875 -3.796875 Z M 34.671875 -3.796875 "/></g></g></g><g fill="#2e2e2e" fill-opacity="1"><g transform="translate(156.110878, 390.153472)"><g/></g></g><g fill="#2e2e2e" fill-opacity="1"><g transform="translate(170.61999, 390.153472)"><g><path d="M 27.125 0 L 20.203125 -10 L 12.5625 -10 L 12.5625 0 L 4.25 0 L 4.25 -35.890625 L 19.796875 -35.890625 C 22.972656 -35.890625 25.734375 -35.359375 28.078125 -34.296875 C 30.421875 -33.242188 32.222656 -31.742188 33.484375 -29.796875 C 34.753906 -27.847656 35.390625 -25.539062 35.390625 -22.875 C 35.390625 -20.207031 34.742188 -17.90625 33.453125 -15.96875 C 32.171875 -14.039062 30.351562 -12.5625 28 -11.53125 L 36.046875 0 Z M 26.96875 -22.875 C 26.96875 -24.882812 26.316406 -26.425781 25.015625 -27.5 C 23.722656 -28.582031 21.828125 -29.125 19.328125 -29.125 L 12.5625 -29.125 L 12.5625 -16.609375 L 19.328125 -16.609375 C 21.828125 -16.609375 23.722656 -17.15625 25.015625 -18.25 C 26.316406 -19.34375 26.96875 -20.882812 26.96875 -22.875 Z M 26.96875 -22.875 "/></g></g></g><g fill="#2e2e2e" fill-opacity="1"><g transform="translate(208.302654, 390.153472)"><g><path d="M 27.890625 -7.6875 L 11.234375 -7.6875 L 8.046875 0 L -0.46875 0 L 15.53125 -35.890625 L 23.75 -35.890625 L 39.796875 0 L 31.078125 0 Z M 25.28125 -14 L 19.59375 -27.75 L 13.890625 -14 Z M 25.28125 -14 "/></g></g></g><g fill="#2e2e2e" fill-opacity="1"><g transform="translate(247.574664, 390.153472)"><g><path d="M 30.609375 -18.671875 C 32.660156 -18.015625 34.265625 -16.925781 35.421875 -15.40625 C 36.585938 -13.882812 37.171875 -12.015625 37.171875 -9.796875 C 37.171875 -6.648438 35.945312 -4.226562 33.5 -2.53125 C 31.0625 -0.84375 27.5 0 22.8125 0 L 4.25 0 L 4.25 -35.890625 L 21.796875 -35.890625 C 26.171875 -35.890625 29.53125 -35.050781 31.875 -33.375 C 34.21875 -31.707031 35.390625 -29.4375 35.390625 -26.5625 C 35.390625 -24.820312 34.96875 -23.265625 34.125 -21.890625 C 33.289062 -20.523438 32.117188 -19.453125 30.609375 -18.671875 Z M 12.515625 -29.640625 L 12.515625 -21.171875 L 20.765625 -21.171875 C 22.816406 -21.171875 24.375 -21.53125 25.4375 -22.25 C 26.5 -22.96875 27.03125 -24.03125 27.03125 -25.4375 C 27.03125 -26.832031 26.5 -27.878906 25.4375 -28.578125 C 24.375 -29.285156 22.816406 -29.640625 20.765625 -29.640625 Z M 22.203125 -6.25 C 24.390625 -6.25 26.035156 -6.609375 27.140625 -7.328125 C 28.253906 -8.046875 28.8125 -9.160156 28.8125 -10.671875 C 28.8125 -13.640625 26.609375 -15.125 22.203125 -15.125 L 12.515625 -15.125 L 12.515625 -6.25 Z M 22.203125 -6.25 "/></g></g></g><g fill="#2e2e2e" fill-opacity="1"><g transform="translate(286.795386, 390.153472)"><g><path d="M 27.890625 -7.6875 L 11.234375 -7.6875 L 8.046875 0 L -0.46875 0 L 15.53125 -35.890625 L 23.75 -35.890625 L 39.796875 0 L 31.078125 0 Z M 25.28125 -14 L 19.59375 -27.75 L 13.890625 -14 Z M 25.28125 -14 "/></g></g></g><g fill="#2e2e2e" fill-opacity="1"><g transform="translate(326.067383, 390.153472)"><g><path d="M 11.6875 -29.125 L 0.203125 -29.125 L 0.203125 -35.890625 L 31.484375 -35.890625 L 31.484375 -29.125 L 20 -29.125 L 20 0 L 11.6875 0 Z M 11.6875 -29.125 "/></g></g></g><g fill="#2e2e2e" fill-opacity="1"><g transform="translate(357.751592, 390.153472)"><g><path d="M 11.6875 -29.125 L 0.203125 -29.125 L 0.203125 -35.890625 L 31.484375 -35.890625 L 31.484375 -29.125 L 20 -29.125 L 20 0 L 11.6875 0 Z M 11.6875 -29.125 "/></g></g></g></svg>