<svg xmlns="http://www.w3.org/2000/svg" xmlns:xlink="http://www.w3.org/1999/xlink" width="600" zoomAndPan="magnify" viewBox="0 0 450 449.999984" height="600" preserveAspectRatio="xMidYMid meet" version="1.0"><defs><filter x="0%" y="0%" width="100%" height="100%" id="7e8f51985f"><feColorMatrix values="0 0 0 0 1 0 0 0 0 1 0 0 0 0 1 0 0 0 1 0" color-interpolation-filters="sRGB"/></filter><mask id="69a1946829"><g filter="url(#7e8f51985f)"><rect x="-45" width="540" fill="#000000" y="-44.999998" height="539.99998" fill-opacity="0.27"/></g></mask><clipPath id="c85bc0880d"><path d="M 295 0 L 450 0 L 450 449.636719 L 295 449.636719 Z M 295 0 " clip-rule="nonzero"/></clipPath><clipPath id="09c817823e"><path d="M 0 210 L 268 210 L 268 449.636719 L 0 449.636719 Z M 0 210 " clip-rule="nonzero"/></clipPath><clipPath id="99e5422ca9"><rect x="0" width="450" y="0" height="450"/></clipPath></defs><rect x="-45" width="540" fill="#ffffff" y="-44.999998" height="539.99998" fill-opacity="1"/><rect x="-45" width="540" fill="#ffffff" y="-44.999998" height="539.99998" fill-opacity="1"/><g mask="url(#69a1946829)"><g transform="matrix(1, 0, 0, 1, 0, 0)"><g clip-path="url(#99e5422ca9)"><g clip-path="url(#c85bc0880d)"><path fill="#57595b" d="M 435.9375 141.667969 L 435.9375 126.199219 C 435.9375 114.597656 426.445312 105.105469 414.84375 105.105469 L 396.210938 105.105469 L 383.203125 8.777344 C 382.5 3.503906 377.929688 -0.363281 372.65625 -0.363281 C 367.382812 -0.363281 362.8125 3.503906 362.109375 8.777344 L 349.101562 105.105469 L 330.46875 105.105469 C 318.867188 105.105469 309.375 114.597656 309.375 126.199219 L 309.375 141.667969 C 301.289062 144.480469 295.3125 152.214844 295.3125 161.355469 L 295.3125 428.542969 C 295.3125 440.144531 304.804688 449.636719 316.40625 449.636719 L 428.90625 449.636719 C 440.507812 449.636719 450 440.144531 450 428.542969 L 450 161.355469 C 450 152.214844 444.023438 144.480469 435.9375 141.667969 Z M 407.8125 119.167969 L 414.84375 119.167969 C 418.710938 119.167969 421.875 122.332031 421.875 126.199219 L 421.875 140.261719 L 407.8125 140.261719 Z M 393.75 119.167969 L 393.75 140.261719 L 379.6875 140.261719 L 379.6875 119.167969 Z M 372.65625 35.847656 L 382.148438 105.105469 L 363.164062 105.105469 Z M 351.5625 119.167969 L 365.625 119.167969 L 365.625 140.261719 L 351.5625 140.261719 Z M 323.4375 126.199219 C 323.4375 122.332031 326.601562 119.167969 330.46875 119.167969 L 337.5 119.167969 L 337.5 140.261719 L 323.4375 140.261719 Z M 435.9375 428.542969 C 435.9375 432.410156 432.773438 435.574219 428.90625 435.574219 L 316.40625 435.574219 C 312.539062 435.574219 309.375 432.410156 309.375 428.542969 L 309.375 421.511719 L 435.9375 421.511719 Z M 435.9375 407.449219 L 309.375 407.449219 L 309.375 161.355469 C 309.375 157.488281 312.539062 154.324219 316.40625 154.324219 L 428.90625 154.324219 C 432.773438 154.324219 435.9375 157.488281 435.9375 161.355469 Z M 435.9375 407.449219 " fill-opacity="1" fill-rule="nonzero"/></g><path fill="#57595b" d="M 372.65625 252.761719 C 349.453125 252.761719 330.46875 271.746094 330.46875 294.949219 C 330.46875 318.152344 349.453125 337.136719 372.65625 337.136719 C 395.859375 337.136719 414.84375 318.152344 414.84375 294.949219 C 414.84375 271.746094 395.859375 252.761719 372.65625 252.761719 Z M 372.65625 323.074219 C 357.1875 323.074219 344.53125 310.417969 344.53125 294.949219 C 344.53125 279.480469 357.1875 266.824219 372.65625 266.824219 C 388.125 266.824219 400.78125 279.480469 400.78125 294.949219 C 400.78125 310.417969 388.125 323.074219 372.65625 323.074219 Z M 372.65625 323.074219 " fill-opacity="1" fill-rule="nonzero"/><g clip-path="url(#09c817823e)"><path fill="#57595b" d="M 267.1875 316.042969 C 267.1875 312.175781 263.671875 308.660156 259.804688 309.011719 C 256.992188 300.574219 253.476562 294.246094 246.445312 288.972656 C 240.46875 284.402344 233.085938 281.589844 225.703125 279.832031 C 218.671875 261.550781 205.664062 254.871094 195.46875 253.113281 C 195.820312 241.863281 191.25 235.183594 189.492188 233.074219 C 180 217.253906 170.507812 209.871094 161.015625 210.574219 C 150.820312 211.277344 146.25 220.769531 145.546875 221.824219 C 144.84375 223.230469 144.84375 224.636719 144.84375 225.691406 C 146.25 233.777344 144.492188 239.753906 140.273438 244.324219 C 129.023438 255.925781 100.546875 254.519531 90.703125 253.113281 C 60.820312 247.839844 45.703125 266.824219 40.429688 280.535156 C 19.335938 283.347656 10.546875 297.761719 7.734375 309.011719 C 3.867188 309.011719 0 311.472656 0 316.042969 C 0 368.425781 30.234375 413.777344 74.179688 435.574219 L 14.0625 435.574219 C 10.195312 435.574219 7.03125 438.738281 7.03125 442.605469 C 7.03125 446.472656 10.195312 449.636719 14.0625 449.636719 L 253.125 449.636719 C 256.992188 449.636719 260.15625 446.472656 260.15625 442.605469 C 260.15625 438.738281 256.992188 435.574219 253.125 435.574219 L 193.007812 435.574219 C 236.953125 413.777344 267.1875 368.425781 267.1875 316.042969 Z M 46.054688 294.246094 C 49.21875 294.246094 52.03125 291.785156 52.734375 288.621094 C 53.085938 287.566406 59.0625 261.550781 88.945312 266.824219 C 90.703125 267.175781 131.835938 273.152344 150.46875 254.167969 C 157.5 247.136719 160.664062 237.644531 159.257812 226.042969 C 159.960938 225.339844 161.015625 224.285156 161.71875 224.285156 C 162.070312 224.285156 167.695312 224.636719 177.539062 240.457031 C 177.890625 240.808594 177.890625 241.160156 178.242188 241.511719 C 178.59375 241.863281 182.460938 246.785156 180.351562 258.035156 C 180 260.144531 180.703125 262.605469 182.109375 264.363281 C 183.867188 266.121094 185.976562 266.824219 188.4375 266.472656 C 189.140625 266.472656 206.015625 264.011719 213.398438 287.566406 C 214.101562 290.027344 216.5625 292.136719 219.375 292.488281 C 219.726562 292.488281 239.765625 295.300781 245.039062 308.308594 L 22.5 308.308594 C 24.960938 303.035156 30.9375 294.949219 46.054688 294.246094 Z M 133.59375 435.574219 C 69.960938 435.574219 17.929688 385.652344 14.414062 323.074219 L 253.125 323.074219 C 249.257812 385.652344 197.226562 435.574219 133.59375 435.574219 Z M 133.59375 435.574219 " fill-opacity="1" fill-rule="nonzero"/></g><path fill="#57595b" d="M 80.15625 394.089844 C 52.734375 382.488281 49.21875 351.902344 49.21875 350.496094 C 48.867188 346.628906 45.351562 343.816406 41.484375 344.167969 C 37.617188 344.519531 34.804688 348.035156 35.15625 351.902344 C 35.15625 353.660156 39.726562 391.980469 74.53125 406.746094 C 78.046875 408.152344 82.265625 406.746094 83.671875 403.230469 C 85.429688 399.714844 83.671875 395.496094 80.15625 394.089844 Z M 80.15625 394.089844 " fill-opacity="1" fill-rule="nonzero"/></g></g></g></svg>