<svg xmlns="http://www.w3.org/2000/svg" xmlns:xlink="http://www.w3.org/1999/xlink" width="600" zoomAndPan="magnify" viewBox="0 0 450 449.999984" height="600" preserveAspectRatio="xMidYMid meet" version="1.0"><defs><filter x="0%" y="0%" width="100%" height="100%" id="afb96b2dde"><feColorMatrix values="0 0 0 0 1 0 0 0 0 1 0 0 0 0 1 0 0 0 1 0" color-interpolation-filters="sRGB"/></filter><mask id="7b19edb388"><g filter="url(#afb96b2dde)"><rect x="-45" width="540" fill="#000000" y="-44.999998" height="539.99998" fill-opacity="0.36"/></g></mask><clipPath id="4b42a474dc"><path d="M 1 0.640625 L 268 0.640625 L 268 448 L 1 448 Z M 1 0.640625 " clip-rule="nonzero"/></clipPath><clipPath id="3ae2141d81"><rect x="0" width="269" y="0" height="448"/></clipPath></defs><rect x="-45" width="540" fill="#ffffff" y="-44.999998" height="539.99998" fill-opacity="1"/><rect x="-45" width="540" fill="#ffffff" y="-44.999998" height="539.99998" fill-opacity="1"/><g mask="url(#7b19edb388)"><g transform="matrix(1, 0, 0, 1, 91, 2)"><g clip-path="url(#3ae2141d81)"><g clip-path="url(#4b42a474dc)"><path fill="#57595b" d="M 100.179688 200.960938 C 99.84375 199.566406 100.757812 197.980469 102.199219 197.691406 C 104.699219 197.355469 107.296875 196.296875 109.796875 196.730469 C 112.726562 197.449219 111.960938 201.296875 109.171875 201.632812 C 107.535156 201.824219 105.230469 202.882812 103.304688 202.976562 C 101.960938 203.074219 100.757812 202.640625 100.179688 200.960938 Z M 69.320312 184.710938 C 70.90625 184.613281 72.492188 183.507812 72.394531 181.441406 C 72.347656 177.164062 65.714844 177.308594 65.808594 181.585938 C 65.859375 183.796875 67.636719 184.808594 69.320312 184.710938 Z M 2.738281 222.929688 C 3.605469 223.792969 4.566406 224.128906 5.527344 224.082031 C 8.460938 223.890625 11.007812 219.996094 8.21875 217.351562 C 4.664062 213.699219 -0.960938 219.417969 2.738281 222.929688 Z M 164.164062 260.472656 C 164.742188 260.425781 165.320312 260.230469 165.847656 259.992188 C 168.925781 258.886719 172 257.875 175.027344 256.675781 C 181.902344 254.269531 188.488281 251.144531 194.546875 247.011719 C 197.238281 244.800781 201.421875 242.78125 202.191406 239.128906 C 202.140625 237.589844 199.785156 237.445312 199.546875 238.984375 C 191.660156 245.523438 182.191406 249.992188 172.671875 253.742188 C 169.597656 254.992188 166.519531 256.242188 163.445312 257.347656 C 162.578125 257.636719 162.195312 258.691406 162.53125 259.511719 C 162.867188 260.28125 163.492188 260.519531 164.164062 260.472656 Z M 89.414062 235.859375 C 87.441406 234.464844 80.761719 235.332031 80.90625 238.550781 C 81 240.953125 82.875 241.292969 84.847656 241.195312 C 85.902344 241.148438 87.011719 240.953125 87.875 240.859375 C 90.277344 240.714844 91.335938 237.347656 89.414062 235.859375 Z M 148.734375 221.871094 C 147.050781 223.503906 143.542969 225.621094 145.753906 228.214844 C 146.425781 228.839844 147.050781 229.082031 147.722656 229.082031 C 149.550781 228.984375 151.1875 226.582031 152.433594 225.285156 C 153.828125 223.648438 157.003906 221.054688 154.359375 219.128906 C 152.003906 217.832031 150.417969 220.714844 148.734375 221.871094 Z M 141.761719 207.640625 C 143.589844 207.542969 145.753906 206.777344 147.195312 206.488281 C 150.609375 205.863281 149.40625 200.621094 146.089844 201.535156 C 145.464844 201.632812 144.695312 201.679688 143.925781 201.726562 C 141.234375 201.871094 138.0625 202.066406 138.160156 205.1875 C 138.542969 207.257812 140.03125 207.738281 141.761719 207.640625 Z M 16.441406 269.414062 C 17.257812 270.277344 18.21875 270.613281 19.179688 270.519531 C 22.066406 270.375 24.566406 266.527344 21.824219 263.933594 C 18.363281 260.375 12.835938 265.953125 16.441406 269.414062 Z M 127.34375 229.945312 C 125.128906 228.457031 123.496094 231.339844 122.4375 232.925781 C 121.382812 234.898438 118.59375 237.832031 121.332031 239.609375 C 121.8125 239.847656 122.246094 239.945312 122.632812 239.945312 C 124.601562 239.847656 125.46875 236.820312 126.476562 235.28125 C 127.34375 233.695312 129.21875 231.4375 127.34375 229.945312 Z M 17.304688 209.757812 C 6.585938 202.785156 11.875 184.710938 25.191406 193.363281 C 30.957031 197.015625 34.273438 203.363281 38.648438 208.410156 C 39.371094 209.226562 40.1875 209.996094 41.054688 210.667969 C 43.648438 213.121094 40.957031 215.476562 38.265625 215.621094 C 37.976562 215.621094 37.640625 215.621094 37.351562 215.574219 C 30.285156 215.8125 23.316406 213.3125 17.304688 209.757812 Z M 33.84375 210.332031 C 29.324219 205.476562 25.671875 196.921875 18.316406 196.535156 C 12.980469 203.941406 28.265625 209.515625 33.84375 210.332031 Z M 112.246094 216.871094 C 110.710938 218.410156 109.265625 221.101562 111.621094 222.589844 C 112.152344 222.929688 112.632812 223.023438 113.113281 223.023438 C 114.410156 222.929688 115.515625 221.726562 116.1875 220.523438 C 117.152344 219.226562 118.785156 217.832031 117.777344 216.054688 C 116.429688 213.503906 113.449219 214.996094 112.246094 216.871094 Z M 31.679688 245.953125 C 31.632812 247.589844 32.976562 248.359375 34.226562 248.308594 C 35.378906 248.261719 36.488281 247.492188 36.488281 246.003906 C 36.535156 242.828125 31.679688 242.828125 31.679688 245.953125 Z M 243.292969 421.222656 C 232.1875 430.644531 218.824219 437.183594 205.316406 442.039062 C 197.191406 444.539062 188.921875 447.183594 180.414062 447.664062 C 179.257812 447.710938 178.152344 447.757812 177 447.757812 C 172.433594 447.328125 165.269531 448 161.519531 445.402344 C 161.28125 445.117188 161.136719 444.828125 161.089844 444.539062 C 159.695312 443.335938 158.589844 441.75 157.773438 440.117188 C 157.386719 439.300781 156.859375 438.480469 156.472656 437.617188 C 152.050781 431.558594 148.734375 424.539062 144.648438 418.292969 C 131.042969 395.9375 120.277344 372.046875 106.960938 349.5 C 97.199219 332.386719 87.828125 315.035156 77.445312 298.304688 C 74.558594 293.496094 71.578125 288.691406 68.742188 283.835938 C 68.164062 283.980469 67.636719 284.125 67.058594 284.265625 C 66.289062 284.605469 65.523438 284.796875 64.847656 284.84375 C 60.523438 285.085938 58.214844 279.84375 56.53125 276.09375 C 56.148438 275.230469 56.003906 274.414062 56.003906 273.59375 C 55.042969 272.007812 54.898438 270.902344 55.28125 270.085938 C 40.621094 267.777344 20.816406 257.730469 16.632812 245.570312 C 13.699219 238.550781 18.410156 230.957031 25.527344 229.175781 C 33.792969 227.207031 42.0625 230.523438 50.28125 231.339844 C 59.511719 232.109375 68.984375 233.261719 56.867188 223.695312 C 51.820312 218.554688 50.1875 209.515625 57.445312 205.527344 C 66.195312 202.113281 73.980469 210.140625 82.105469 212.304688 C 82.585938 212.398438 83.117188 212.542969 83.597656 212.738281 C 83.644531 211.871094 83.691406 211.007812 83.789062 210.1875 C 85.136719 199.46875 88.933594 188.75 96.671875 180.960938 C 99.75 177.882812 105.230469 172.644531 109.890625 174.617188 C 113.304688 176.441406 110.613281 180 110.226562 182.691406 C 109.941406 187.257812 115.132812 188.363281 118.6875 187.691406 C 126.476562 186.539062 135.273438 183.078125 142.582031 187.402344 C 143.878906 188.269531 145.320312 190.144531 145.511719 191.921875 C 147.003906 191.535156 148.492188 191.25 150.03125 191.007812 C 157.433594 190 164.933594 193.269531 170.125 198.460938 C 171.230469 199.902344 173.539062 202.496094 173.78125 204.660156 C 176.566406 205.09375 179.308594 205.910156 181.902344 207.257812 C 185.941406 209.5625 188.824219 213.167969 191.804688 216.628906 C 192.046875 216.917969 192.238281 217.253906 192.335938 217.542969 C 192.769531 217.351562 193.199219 217.160156 193.632812 216.96875 C 194.835938 215.957031 196.804688 215.238281 197.765625 214.660156 C 199.980469 213.699219 202.527344 212.257812 205.074219 212.113281 L 205.074219 212.0625 L 205.121094 212.015625 L 205.171875 211.96875 L 205.21875 211.917969 C 206.613281 211.582031 208.054688 211.535156 209.496094 211.917969 C 213.4375 213.023438 217.429688 220.332031 215.074219 223.746094 C 214.878906 224.515625 214.0625 225.378906 212.957031 226.246094 C 213.824219 230.667969 214.59375 235.089844 215.457031 239.511719 C 216.371094 244.222656 217.285156 248.933594 218.148438 253.644531 C 222.042969 274.988281 225.746094 296.382812 230.550781 317.53125 C 236.992188 343.445312 242.472656 369.546875 248.003906 395.648438 C 248.675781 398.679688 249.492188 401.609375 250.503906 404.542969 C 250.789062 405.359375 251.222656 406.464844 251.414062 407.476562 C 254.78125 409.878906 245.597656 419.347656 243.292969 421.222656 Z M 154.117188 213.601562 C 142.964844 217.542969 132.003906 222.253906 121.863281 228.359375 C 113.832031 233.503906 106.09375 239.128906 98.546875 244.898438 C 95.132812 247.636719 91.769531 250.472656 89.027344 253.839844 C 88.308594 254.65625 87.683594 255.519531 87.105469 256.433594 C 119.167969 245.664062 150.800781 233.984375 182.238281 221.535156 C 183.730469 220.957031 185.269531 220.378906 186.757812 219.804688 C 177.242188 207.738281 167.722656 209.226562 154.117188 213.601562 Z M 135.417969 200.765625 C 125.273438 205.71875 115.804688 211.96875 105.902344 217.351562 C 94.605469 224.128906 74.703125 234.226562 72.15625 248.117188 C 71.625 252.203125 72.734375 256.53125 75.953125 259.222656 C 76.433594 259.316406 76.769531 259.558594 77.011719 259.847656 C 77.972656 259.511719 78.789062 259.222656 79.460938 258.933594 C 79.75 258.835938 80.039062 258.742188 80.328125 258.644531 C 80.328125 258.453125 80.328125 258.308594 80.375 258.117188 C 80.761719 256.097656 82.011719 254.320312 83.117188 252.589844 C 87.25 246.578125 93.210938 242.203125 98.929688 237.832031 C 108.496094 230.8125 117.921875 223.410156 128.542969 218.023438 C 139.890625 212.640625 154.742188 204.421875 168.492188 204.132812 C 166.472656 200.671875 163.011719 198.265625 159.359375 196.632812 C 151.28125 193.316406 142.726562 197.449219 135.417969 200.765625 Z M 88.402344 222.542969 C 93.355469 219.324219 98.449219 216.484375 102.777344 213.792969 C 115.660156 207.015625 127.726562 197.449219 141.621094 192.882812 C 141.476562 192.644531 141.28125 192.355469 141.042969 192.066406 C 139.890625 190.625 137.628906 189.277344 130.753906 190.238281 C 125.46875 190.71875 120.371094 192.835938 114.988281 192.449219 C 108.496094 192.304688 103.449219 185.480469 106.140625 179.328125 C 95.808594 185.863281 90.328125 197.980469 88.597656 209.757812 C 88.117188 214.035156 88.117188 218.3125 88.402344 222.542969 Z M 63.261719 265.375 C 63.648438 265.183594 64.078125 265.039062 64.464844 264.847656 L 64.464844 264.796875 L 64.511719 264.75 C 67.011719 263.546875 69.703125 262.492188 72.203125 261.578125 C 67.734375 258.019531 66.484375 250.859375 67.972656 245.523438 C 70.089844 237.15625 76.722656 230.714844 84.367188 225.285156 C 84.078125 224.898438 83.886719 224.464844 83.835938 223.984375 C 83.691406 221.820312 83.546875 219.609375 83.546875 217.398438 C 79.460938 217.542969 71.53125 212.6875 69.078125 211.917969 C 63.023438 208.074219 54.273438 208.652344 58.792969 217.640625 C 60.234375 220.621094 63.261719 222.253906 65.328125 224.707031 C 74.078125 235.90625 58.742188 238.167969 50.476562 236.773438 C 43.167969 236.386719 35.863281 233.792969 28.554688 234.945312 C 15.285156 238.359375 27.113281 250.859375 33.792969 254.75 C 40.859375 259.078125 48.359375 262.921875 56.53125 264.511719 C 58.261719 265.277344 61.242188 264.75 63.261719 265.375 Z M 72.445312 276.960938 C 83.886719 273.835938 95.132812 269.847656 106.527344 266.433594 C 118.449219 262.78125 130.324219 258.886719 141.859375 254.078125 C 157.003906 248.019531 172.046875 241.722656 186.757812 234.707031 C 194.882812 230.570312 202.429688 225.332031 210.746094 221.582031 C 210.3125 219.515625 209.640625 217.160156 207.574219 216.199219 C 177.046875 228.070312 146.378906 240.714844 115.46875 252.058594 C 106.527344 255.28125 97.632812 258.742188 88.742188 262.15625 C 79.703125 265.710938 69.992188 268.257812 61.867188 273.789062 C 62.109375 274.414062 62.398438 275.039062 62.734375 275.664062 C 63.308594 276.769531 63.933594 277.875 64.609375 278.929688 C 67.058594 278.355469 69.511719 277.777344 71.964844 277.105469 C 72.058594 277.058594 72.109375 277.007812 72.203125 277.007812 C 72.25 276.960938 72.300781 276.960938 72.347656 276.914062 C 72.394531 276.914062 72.445312 276.914062 72.445312 276.960938 Z M 86.480469 298.402344 C 88.355469 298.207031 90.230469 297.917969 92.058594 297.582031 C 100.421875 295.949219 108.882812 294.265625 116.910156 291.429688 C 141.476562 282.054688 166.28125 273.210938 190.507812 263.066406 C 195.316406 260.664062 200.074219 258.117188 204.304688 254.75 C 206.179688 253.261719 208.007812 251.769531 209.738281 250.136719 C 209.832031 249.945312 209.976562 249.800781 210.074219 249.65625 C 209.542969 246.53125 209.015625 243.40625 208.4375 240.328125 C 207.863281 236.917969 207.332031 233.503906 206.757812 230.089844 C 204.882812 231.148438 203.199219 232.15625 202.238281 232.976562 C 185.894531 243.792969 167.433594 250.90625 149.359375 258.210938 C 125.273438 267.828125 100.375 275.277344 75.375 282.007812 C 76 283.019531 76.625 284.027344 77.25 284.988281 C 79.894531 289.121094 82.441406 293.304688 85.039062 297.488281 C 85.277344 297.871094 85.472656 298.207031 85.710938 298.59375 C 85.902344 298.496094 86.191406 298.402344 86.480469 298.402344 Z M 156.664062 397.1875 C 177.914062 391.996094 199.066406 384.785156 218.003906 373.632812 C 223.246094 370.171875 228.292969 366.375 233.101562 362.335938 C 233.246094 362.191406 233.386719 362 233.582031 361.855469 C 228.773438 340.367188 223.292969 319.070312 218.824219 297.488281 C 216.035156 283.5 213.535156 269.414062 211.132812 255.375 C 208.296875 258.261719 204.113281 261.144531 202.863281 262.15625 C 194.59375 267.730469 185.316406 271.527344 176.136719 275.277344 C 147.53125 285.855469 119.363281 299.601562 88.933594 303.878906 C 100.230469 322.628906 111.476562 341.375 122.535156 360.269531 C 129.503906 373.390625 136.425781 386.5625 143.300781 399.734375 C 143.636719 399.542969 144.023438 399.449219 144.457031 399.398438 C 148.589844 399.109375 152.628906 398.199219 156.664062 397.1875 Z M 246.898438 408.292969 C 240.9375 400.839844 237.425781 376.179688 235.167969 369.066406 C 235.070312 368.585938 234.976562 368.054688 234.832031 367.574219 C 232.425781 369.882812 229.351562 372.046875 227.859375 373.488281 C 216.324219 382.816406 202.429688 388.582031 188.632812 393.679688 C 174.886719 398.726562 160.75 403.582031 146.136719 405.265625 C 150.175781 412.957031 154.167969 420.695312 158.203125 428.386719 C 158.878906 430.40625 163.394531 437.085938 163.730469 440.691406 C 163.875 440.835938 163.972656 440.933594 164.117188 441.078125 C 181.375 444.105469 198.730469 438.050781 214.253906 430.886719 C 223.003906 426.609375 231.753906 422.089844 239.253906 415.839844 C 242.136719 413.675781 244.300781 410.695312 246.898438 408.292969 Z M 241.273438 408.917969 C 241.128906 407.042969 238.242188 407.28125 238.386719 409.109375 C 238.484375 410.984375 241.417969 410.792969 241.273438 408.917969 Z M 221.996094 416.367188 C 220.699219 416.417969 218.246094 417.234375 219.109375 418.964844 C 219.398438 419.492188 219.878906 419.636719 220.410156 419.636719 C 222.1875 419.542969 224.445312 417.136719 221.996094 416.367188 Z M 205.074219 423.578125 C 197.527344 428.339844 188.488281 429.636719 179.980469 431.65625 C 177.046875 432.183594 173.921875 432.761719 170.75 433.144531 C 169.835938 433.289062 169.117188 434.15625 169.261719 435.070312 C 169.164062 436.175781 170.703125 436.511719 173.011719 436.367188 C 179.308594 435.980469 191.566406 432.28125 193.875 431.894531 C 198.199219 430.359375 204.402344 428.578125 207.1875 424.828125 C 207.332031 423.773438 205.988281 423.003906 205.074219 423.578125 Z M 121.910156 322.53125 C 120.371094 325.367188 118.0625 332.195312 122.96875 332.722656 C 123.015625 332.722656 123.0625 332.722656 123.113281 332.722656 C 128.253906 332.433594 123.160156 321.90625 135.609375 319.695312 C 138.300781 319.457031 140.800781 320.273438 143.253906 321.332031 C 145.367188 322.4375 148.6875 320.851562 147.386719 318.253906 C 140.273438 310.753906 126.332031 313.304688 121.910156 322.53125 Z M 138.878906 88.421875 C 139.265625 88.953125 139.695312 89.144531 140.128906 89.144531 C 140.945312 89.097656 141.8125 88.421875 142.484375 87.941406 C 143.253906 87.652344 144.070312 87.222656 143.925781 86.261719 C 143.445312 83.710938 137.390625 86.164062 138.878906 88.421875 Z M 267.617188 11.84375 C 262.085938 23.527344 255.164062 34.679688 248.144531 45.542969 C 242.808594 53.8125 237.234375 61.933594 232.089844 70.394531 C 231.898438 70.636719 231.609375 70.972656 231.320312 71.453125 C 231.273438 71.742188 231.175781 72.03125 231.03125 72.269531 C 230.601562 72.945312 230.214844 73.570312 229.78125 74.242188 C 228.4375 76.742188 226.851562 79.816406 225.3125 81.644531 C 236.511719 92.988281 243.386719 109.09375 246.464844 124.523438 C 249.636719 138.898438 247.714844 154.28125 244.203125 168.316406 C 243.917969 170.480469 240.503906 182.453125 237.089844 187.980469 C 237.957031 188.414062 238.820312 188.84375 239.6875 189.277344 C 240.359375 189.566406 240.742188 190 240.9375 190.480469 C 241.222656 190.480469 241.5625 190.625 241.945312 190.816406 C 243.773438 192.691406 241.5625 195.480469 240.839844 197.449219 C 240.023438 198.554688 239.445312 200.765625 238.484375 202.304688 C 238.292969 203.027344 237.761719 203.652344 236.945312 203.796875 C 236.753906 203.890625 236.5625 203.941406 236.320312 203.941406 C 235.984375 203.941406 235.550781 203.890625 235.117188 203.699219 C 234.976562 203.601562 234.878906 203.507812 234.78125 203.410156 C 217.234375 197.210938 201.804688 186.25 185.652344 177.210938 C 168.972656 167.695312 152.53125 157.742188 135.945312 148.03125 C 123.449219 140.582031 110.226562 134.476562 97.34375 127.699219 C 93.980469 125.917969 90.710938 123.949219 87.632812 121.6875 C 86.867188 121.113281 86.671875 120.34375 86.769531 119.621094 C 86.242188 119.09375 86 118.324219 86.144531 117.410156 C 87.394531 109.574219 93.308594 101.304688 101.382812 107.796875 C 102.296875 108.277344 103.257812 108.804688 104.171875 109.285156 C 104.21875 108.855469 104.363281 108.421875 104.605469 108.035156 C 116.574219 89.191406 133.589844 72.800781 155.753906 67.222656 C 171.230469 61.886719 187.71875 64.003906 203.199219 68.183594 C 205.796875 68.953125 208.246094 69.914062 210.601562 71.019531 C 210.746094 70.78125 210.890625 70.539062 211.035156 70.300781 C 212.09375 68.519531 213.101562 66.742188 214.113281 64.964844 C 214.496094 64.195312 215.121094 63.859375 215.792969 63.761719 C 219.207031 57.945312 222.378906 51.984375 225.9375 46.214844 C 230.695312 38.332031 235.742188 30.542969 240.117188 22.421875 C 244.398438 15.546875 246.898438 6.652344 253.914062 2.039062 C 259.78125 -2 268.960938 5.113281 267.617188 11.84375 Z M 209.882812 82.078125 C 203.824219 93.519531 198.105469 105.105469 191.566406 116.304688 C 190.074219 118.949219 188.824219 121.6875 187.671875 124.476562 C 187.574219 124.765625 187.480469 125.054688 187.335938 125.34375 C 188.058594 125.824219 188.824219 126.304688 189.5 126.542969 C 190.796875 127.359375 192.960938 127.648438 194.691406 128.082031 C 196.421875 124.863281 198.199219 121.6875 199.882812 118.417969 C 205.507812 107.265625 210.699219 95.875 216.660156 84.914062 C 214.785156 83.328125 212.863281 81.886719 210.84375 80.585938 C 210.507812 81.019531 210.21875 81.546875 209.882812 82.078125 Z M 173.921875 157.164062 C 159.359375 148.753906 144.792969 140.4375 130.464844 131.640625 C 119.363281 123.949219 107.390625 117.699219 95.613281 111.113281 C 93.113281 112.699219 92.105469 115.726562 91.480469 118.515625 C 91.480469 118.5625 91.480469 118.5625 91.433594 118.613281 C 103.980469 126.878906 118.0625 132.554688 131.1875 139.8125 C 152.242188 151.300781 172.914062 163.367188 193.875 175.097656 C 202.285156 180 210.601562 185 219.109375 189.710938 C 224.445312 192.738281 229.832031 195.765625 235.3125 198.507812 C 236.03125 197.210938 236.898438 195.960938 237.136719 195 C 237.378906 194.613281 237.617188 194.085938 237.859375 193.554688 C 237.617188 193.460938 237.378906 193.316406 237.136719 193.125 C 215.21875 182.882812 195.265625 168.703125 173.921875 157.164062 Z M 220.890625 89 C 215.890625 98.085938 210.890625 107.21875 206.324219 116.546875 C 204.351562 120.390625 202.238281 124.1875 200.121094 127.984375 C 198.871094 129.714844 198.054688 133.515625 195.75 133.660156 C 195.363281 133.660156 194.980469 133.609375 194.5 133.417969 C 194.160156 133.226562 193.921875 132.984375 193.679688 132.695312 C 193.441406 132.695312 193.152344 132.648438 192.910156 132.554688 C 190.605469 132.167969 184.402344 130.535156 182.335938 127.9375 C 182.191406 127.890625 182 127.792969 181.855469 127.699219 C 180.796875 127.121094 180.316406 125.726562 180.894531 124.621094 C 182.914062 121.113281 184.882812 117.507812 186.757812 113.902344 C 191.039062 105.875 195.316406 97.796875 199.785156 89.816406 C 201.515625 86.882812 203.199219 83.953125 204.882812 81.019531 C 205.410156 80.058594 205.9375 79.097656 206.46875 78.136719 C 197.09375 73.425781 185.988281 71.359375 173.347656 71.019531 C 157.914062 72.175781 142.292969 77.320312 130.128906 86.980469 C 124.023438 91.933594 118.449219 98.375 114.027344 104.625 C 112.054688 106.738281 110.996094 110.054688 108.691406 111.785156 C 109.363281 112.074219 110.035156 112.410156 110.757812 112.746094 L 110.421875 112.746094 C 119.699219 117.9375 128.734375 123.46875 137.628906 129.285156 C 166.664062 147.117188 196.660156 163.320312 225.648438 181.203125 C 228.148438 182.59375 230.550781 184.183594 233.050781 185.625 C 240.695312 159.808594 244.203125 131.304688 231.945312 106.402344 C 228.871094 99.382812 225.214844 93.664062 220.890625 89 Z M 260.644531 10.210938 C 260.261719 8.816406 258.769531 8.09375 257.664062 7.324219 C 251.367188 10.738281 247.425781 23.238281 243.292969 29.390625 C 234.832031 43.621094 226.371094 57.898438 217.429688 71.839844 C 217.285156 72.03125 217.09375 72.222656 216.949219 72.367188 C 216.660156 72.75 216.417969 73.183594 216.179688 73.617188 C 216.082031 73.714844 215.988281 73.855469 215.9375 73.953125 C 217.667969 75.058594 219.351562 76.308594 220.9375 77.605469 C 222.1875 75.539062 223.679688 73.136719 225.121094 71.308594 C 228.195312 64.628906 232.332031 58.28125 235.742188 51.984375 C 244.058594 38.09375 252.808594 24.441406 260.644531 10.210938 Z M 147.4375 265.710938 C 148.445312 265.664062 149.695312 264.796875 150.609375 264.558594 C 151.472656 264.171875 152.484375 263.933594 153.203125 263.261719 C 153.683594 262.730469 153.398438 261.816406 152.722656 261.578125 C 151.714844 261.289062 150.65625 261.867188 149.648438 262.058594 C 148.6875 262.347656 147.722656 262.636719 146.761719 262.921875 C 145.992188 263.164062 145.707031 264.125 145.945312 264.796875 C 146.332031 265.519531 146.859375 265.761719 147.4375 265.710938 Z M 191.804688 79.242188 C 185.269531 76.597656 177.769531 76.453125 170.75 76.453125 C 168.058594 76.164062 147.820312 79.335938 150.078125 83.230469 C 150.367188 83.855469 151.089844 84.289062 151.761719 84.289062 C 151.90625 84.289062 152.050781 84.242188 152.195312 84.191406 C 155.320312 83.039062 158.589844 82.078125 161.808594 81.308594 C 171.039062 79.386719 180.605469 80.105469 189.835938 81.355469 C 191.132812 82.460938 193.105469 80.441406 191.804688 79.242188 Z M 213.535156 366.710938 C 213.679688 368.679688 216.707031 368.441406 216.5625 366.46875 C 216.46875 364.546875 213.390625 364.789062 213.535156 366.710938 Z M 226.609375 357.867188 C 226.417969 354.597656 221.324219 354.980469 221.609375 358.25 C 221.804688 361.472656 226.851562 361.085938 226.609375 357.867188 Z M 214.738281 356.808594 C 214.59375 354.933594 211.707031 355.125 211.851562 357 C 211.996094 358.875 214.878906 358.683594 214.738281 356.808594 Z M 104.554688 309.074219 C 104.699219 311.234375 108.066406 310.996094 107.871094 308.832031 C 107.730469 306.667969 104.363281 306.910156 104.554688 309.074219 Z M 87.492188 284.125 C 87.683594 286.910156 92.007812 286.574219 91.769531 283.785156 C 91.625 281.046875 87.296875 281.382812 87.492188 284.125 Z M 207.140625 371.46875 C 206.996094 370.125 205.027344 370.269531 205.074219 371.613281 C 205.21875 373.007812 207.1875 372.863281 207.140625 371.46875 Z M 95.566406 308.398438 C 95.710938 310.609375 99.125 310.371094 98.980469 308.160156 C 98.835938 305.949219 95.421875 306.1875 95.566406 308.398438 Z M 179.257812 307.054688 C 179.308594 307.054688 179.402344 307.054688 179.453125 307.054688 C 182.480469 306.859375 181.855469 303.160156 183.007812 301.1875 C 185.027344 297.101562 190.699219 294.316406 194.785156 297.101562 C 196.421875 297.96875 197.140625 299.9375 198.824219 300.660156 C 201.515625 301.285156 202.335938 297.777344 200.988281 295.996094 C 196.46875 287.824219 184.644531 288.835938 179.453125 295.757812 C 177.480469 298.402344 173.828125 306.332031 179.257812 307.054688 Z M 179.257812 307.054688 " fill-opacity="1" fill-rule="nonzero"/></g></g></g></g></svg>