<svg xmlns="http://www.w3.org/2000/svg" xmlns:xlink="http://www.w3.org/1999/xlink" width="600" zoomAndPan="magnify" viewBox="0 0 450 449.999984" height="600" preserveAspectRatio="xMidYMid meet" version="1.0"><defs><clipPath id="b12de6b09d"><path d="M 151 154.144531 L 299 154.144531 L 299 296 L 151 296 Z M 151 154.144531 " clip-rule="nonzero"/></clipPath><clipPath id="df2ea1bd84"><path d="M 227.128906 156.066406 L 247.957031 198.355469 C 248.277344 199.097656 249.015625 199.625 249.863281 199.730469 L 296.488281 206.496094 C 298.496094 206.816406 299.339844 209.351562 297.859375 210.726562 L 264.132812 243.609375 C 263.5 244.136719 263.289062 244.980469 263.394531 245.828125 L 271.324219 292.347656 C 271.640625 294.355469 269.527344 295.941406 267.730469 294.992188 L 225.96875 273 C 225.226562 272.578125 224.382812 272.578125 223.640625 273 L 181.878906 294.992188 C 180.082031 295.941406 177.96875 294.355469 178.285156 292.347656 L 186.214844 245.828125 C 186.320312 244.980469 186.109375 244.242188 185.472656 243.609375 L 151.855469 210.726562 C 150.375 209.246094 151.21875 206.816406 153.226562 206.496094 L 199.851562 199.730469 C 200.699219 199.625 201.332031 199.097656 201.757812 198.355469 L 222.585938 156.066406 C 223.535156 154.269531 226.179688 154.269531 227.128906 156.066406 Z M 227.128906 156.066406 " clip-rule="nonzero"/></clipPath><clipPath id="89af0ff467"><path d="M 351 201.167969 L 450 201.167969 L 450 296 L 351 296 Z M 351 201.167969 " clip-rule="nonzero"/></clipPath><clipPath id="09ab27f9ef"><path d="M 402.265625 202.449219 L 416.15625 230.652344 C 416.367188 231.144531 416.863281 231.5 417.425781 231.570312 L 448.519531 236.082031 C 449.859375 236.292969 450.421875 237.984375 449.4375 238.902344 L 426.945312 260.828125 C 426.519531 261.183594 426.378906 261.746094 426.449219 262.308594 L 431.738281 293.332031 C 431.949219 294.671875 430.539062 295.730469 429.339844 295.097656 L 401.492188 280.429688 C 400.996094 280.148438 400.433594 280.148438 399.941406 280.429688 L 372.089844 295.097656 C 370.890625 295.730469 369.480469 294.671875 369.691406 293.332031 L 374.980469 262.308594 C 375.050781 261.746094 374.910156 261.253906 374.488281 260.828125 L 352.066406 238.902344 C 351.078125 237.914062 351.640625 236.292969 352.980469 236.082031 L 384.074219 231.570312 C 384.640625 231.5 385.0625 231.144531 385.34375 230.652344 L 399.234375 202.449219 C 399.871094 201.25 401.632812 201.25 402.265625 202.449219 Z M 402.265625 202.449219 " clip-rule="nonzero"/></clipPath><clipPath id="806669e12a"><path d="M 0 201.167969 L 98.902344 201.167969 L 98.902344 296 L 0 296 Z M 0 201.167969 " clip-rule="nonzero"/></clipPath><clipPath id="3290861ad0"><path d="M 50.695312 202.449219 L 64.585938 230.652344 C 64.796875 231.144531 65.289062 231.5 65.855469 231.570312 L 96.949219 236.082031 C 98.289062 236.292969 98.851562 237.984375 97.863281 238.902344 L 75.371094 260.828125 C 74.949219 261.183594 74.808594 261.746094 74.878906 262.308594 L 80.167969 293.332031 C 80.378906 294.671875 78.96875 295.730469 77.769531 295.097656 L 49.917969 280.429688 C 49.425781 280.148438 48.863281 280.148438 48.367188 280.429688 L 20.519531 295.097656 C 19.320312 295.730469 17.910156 294.671875 18.121094 293.332031 L 23.410156 262.308594 C 23.480469 261.746094 23.339844 261.253906 22.914062 260.828125 L 0.492188 238.902344 C -0.492188 237.914062 0.0703125 236.292969 1.410156 236.082031 L 32.503906 231.570312 C 33.066406 231.5 33.492188 231.144531 33.773438 230.652344 L 47.664062 202.449219 C 48.296875 201.25 50.058594 201.25 50.695312 202.449219 Z M 50.695312 202.449219 " clip-rule="nonzero"/></clipPath></defs><rect x="-45" width="540" fill="#ffffff" y="-44.999998" height="539.99998" fill-opacity="1"/><rect x="-45" width="540" fill="#ffffff" y="-44.999998" height="539.99998" fill-opacity="1"/><g clip-path="url(#b12de6b09d)"><g clip-path="url(#df2ea1bd84)"><path fill="#2e2e2e" d="M 151.113281 154.691406 L 298.871094 154.691406 L 298.871094 295.308594 L 151.113281 295.308594 Z M 151.113281 154.691406 " fill-opacity="1" fill-rule="nonzero"/></g></g><g clip-path="url(#89af0ff467)"><g clip-path="url(#09ab27f9ef)"><path fill="#2e2e2e" d="M 351.570312 201.53125 L 450.109375 201.53125 L 450.109375 295.308594 L 351.570312 295.308594 Z M 351.570312 201.53125 " fill-opacity="1" fill-rule="nonzero"/></g></g><g clip-path="url(#806669e12a)"><g clip-path="url(#3290861ad0)"><path fill="#2e2e2e" d="M 0 201.53125 L 98.535156 201.53125 L 98.535156 295.308594 L 0 295.308594 Z M 0 201.53125 " fill-opacity="1" fill-rule="nonzero"/></g></g></svg>