<svg xmlns="http://www.w3.org/2000/svg" xmlns:xlink="http://www.w3.org/1999/xlink" width="600" zoomAndPan="magnify" viewBox="0 0 450 449.999984" height="600" preserveAspectRatio="xMidYMid meet" version="1.0"><defs><clipPath id="8faf7527e1"><path d="M 0 29.25 L 392 29.25 L 392 420.75 L 0 420.75 Z M 0 29.25 " clip-rule="nonzero"/></clipPath></defs><rect x="-45" width="540" fill="#ffffff" y="-44.999998" height="539.99998" fill-opacity="1"/><rect x="-45" width="540" fill="#ffffff" y="-44.999998" height="539.99998" fill-opacity="1"/><path fill="#33be01" d="M 187.257812 266.683594 C 210.292969 225.191406 232.351562 193.726562 257.03125 167.507812 C 271.851562 151.769531 287.492188 138.03125 304.742188 125.269531 C 255.902344 143.222656 213 196.773438 213 196.773438 C 196.152344 70.761719 372.449219 47.402344 449.914062 49.582031 C 377.980469 137.75 437.515625 226.359375 247.332031 241.757812 C 233.199219 262.832031 219.164062 287.402344 204.242188 316.789062 L 167.011719 316.789062 C 153.085938 270.671875 110.273438 219.402344 68.789062 195.351562 C 115.078125 192.527344 165.804688 227.308594 187.257812 266.683594 Z M 187.257812 266.683594 " fill-opacity="1" fill-rule="nonzero"/><g clip-path="url(#8faf7527e1)"><path fill="#33be01" d="M 195.832031 29.25 C 231.34375 29.25 264.648438 38.707031 293.363281 55.246094 C 281 60.117188 269.199219 65.792969 258.320312 72.359375 C 239.046875 64.460938 217.945312 60.105469 195.832031 60.105469 C 150.296875 60.105469 109.074219 78.5625 79.234375 108.402344 C 49.394531 138.238281 30.9375 179.460938 30.9375 224.996094 C 30.9375 270.53125 49.394531 311.757812 79.234375 341.59375 C 109.074219 371.433594 150.296875 389.890625 195.832031 389.890625 C 241.363281 389.890625 282.589844 371.433594 312.429688 341.59375 C 340.359375 313.660156 358.320312 275.746094 360.5 233.660156 C 372.214844 227.167969 382.332031 219.394531 391.011719 209.988281 C 391.386719 214.941406 391.578125 219.949219 391.578125 224.996094 C 391.578125 279.046875 369.667969 327.988281 334.242188 363.410156 C 298.820312 398.832031 249.882812 420.742188 195.832031 420.742188 C 141.777344 420.742188 92.839844 398.832031 57.417969 363.410156 C 21.996094 327.988281 0.0820312 279.046875 0.0820312 224.996094 C 0.0820312 170.945312 21.996094 122.007812 57.417969 86.582031 C 92.839844 51.164062 141.777344 29.25 195.832031 29.25 Z M 195.832031 29.25 " fill-opacity="1" fill-rule="nonzero"/></g></svg>